<?xml version="1.0" encoding="UTF-8"?>
<!DOCTYPE svg PUBLIC "-//W3C//DTD SVG 1.1//EN" "http://www.w3.org/Graphics/SVG/1.1/DTD/svg11.dtd">
<svg xmlns="http://www.w3.org/2000/svg" version="1.1" width="611px" height="400px" style="shape-rendering:geometricPrecision; text-rendering:geometricPrecision; image-rendering:optimizeQuality; fill-rule:evenodd; clip-rule:evenodd" xmlns:xlink="http://www.w3.org/1999/xlink">
<g><path style="opacity:1" fill="#afcdfb" d="M 465.5,24.5 C 373.984,27.1757 282.651,30.5091 191.5,34.5C 190.167,34.5 188.833,34.5 187.5,34.5C 187.177,27.5698 187.177,20.7365 187.5,14C 285.186,10.4993 382.853,6.66597 480.5,2.5C 480.549,9.84931 480.882,17.1826 481.5,24.5C 476.167,24.5 470.833,24.5 465.5,24.5 Z"/></g>
<g><path style="opacity:1" fill="#cce0fb" d="M 465.5,24.5 C 465.5,77.1667 465.5,129.833 465.5,182.5C 377.833,182.5 290.167,182.5 202.5,182.5C 202.5,133.167 202.5,83.8333 202.5,34.5C 198.833,34.5 195.167,34.5 191.5,34.5C 282.651,30.5091 373.984,27.1757 465.5,24.5 Z"/></g>
<g><path style="opacity:1" fill="#adccfb" d="M 235.5,45.5 C 264.167,45.5 292.833,45.5 321.5,45.5C 321.5,51.5 321.5,57.5 321.5,63.5C 292.833,63.5 264.167,63.5 235.5,63.5C 235.5,57.5 235.5,51.5 235.5,45.5 Z"/></g>
<g><path style="opacity:1" fill="#adccfb" d="M 349.5,45.5 C 378.167,45.5 406.833,45.5 435.5,45.5C 435.5,51.5 435.5,57.5 435.5,63.5C 406.833,63.5 378.167,63.5 349.5,63.5C 349.5,57.5 349.5,51.5 349.5,45.5 Z"/></g>
<g><path style="opacity:1" fill="#a3c3ef" d="M 316.5,162.5 C 315.502,131.338 315.168,100.004 315.5,68.5C 290.833,68.5 266.167,68.5 241.5,68.5C 241.167,99.8404 241.5,131.174 242.5,162.5C 243.167,138.67 243.833,115.003 244.5,91.5C 244.5,102.5 244.5,113.5 244.5,124.5C 244.5,137.167 244.5,149.833 244.5,162.5C 246.5,162.5 248.5,162.5 250.5,162.5C 261.167,162.5 271.833,162.5 282.5,162.5C 285.5,162.5 288.5,162.5 291.5,162.5C 291.833,162.5 292.167,162.5 292.5,162.5C 276.431,163.174 260.265,163.84 244,164.5C 241.619,163.565 239.119,163.232 236.5,163.5C 237.568,162.566 238.901,162.232 240.5,162.5C 240.5,130.833 240.5,99.1667 240.5,67.5C 265.833,67.5 291.167,67.5 316.5,67.5C 316.5,99.1667 316.5,130.833 316.5,162.5 Z"/></g>
<g><path style="opacity:1" fill="#a5c5f3" d="M 434.5,163.5 C 432.833,163.5 431.167,163.5 429.5,163.5C 429.5,131.833 429.5,100.167 429.5,68.5C 404.833,68.5 380.167,68.5 355.5,68.5C 355.832,100.004 355.498,131.338 354.5,162.5C 354.5,130.833 354.5,99.1667 354.5,67.5C 379.833,67.5 405.167,67.5 430.5,67.5C 430.5,99.1667 430.5,130.833 430.5,162.5C 432.099,162.232 433.432,162.566 434.5,163.5 Z"/></g>
<g><path style="opacity:1" fill="#8db4ee" d="M 434.5,163.5 C 437.044,164.708 438.378,166.708 438.5,169.5C 407.833,169.5 377.167,169.5 346.5,169.5C 347.298,165.036 349.964,162.703 354.5,162.5C 355.498,131.338 355.832,100.004 355.5,68.5C 380.167,68.5 404.833,68.5 429.5,68.5C 429.5,100.167 429.5,131.833 429.5,163.5C 431.167,163.5 432.833,163.5 434.5,163.5 Z"/></g>
<g><path style="opacity:1" fill="#a4a9c2" d="M 397.5,161.5 C 400.287,162.477 403.287,162.81 406.5,162.5C 413.167,162.5 419.833,162.5 426.5,162.5C 416.5,163.833 406.5,163.833 396.5,162.5C 396.5,161.833 396.833,161.5 397.5,161.5 Z"/></g>
<g><path style="opacity:1" fill="#ebaa62" d="M 385.5,158.5 C 385.833,159.833 386.167,161.167 386.5,162.5C 385.167,162.5 383.833,162.5 382.5,162.5C 383.026,160.77 384.026,159.436 385.5,158.5 Z"/></g>
<g><path style="opacity:1" fill="#fcaa68" d="M 372.5,147.5 C 371.117,152.415 370.117,157.415 369.5,162.5C 367.5,162.5 365.5,162.5 363.5,162.5C 362.638,156.961 363.972,152.128 367.5,148C 369.134,147.506 370.801,147.34 372.5,147.5 Z"/></g>
<g><path style="opacity:1" fill="#ed7c29" d="M 418.5,145.5 C 421.167,145.5 423.833,145.5 426.5,145.5C 426.5,151.167 426.5,156.833 426.5,162.5C 419.833,162.5 413.167,162.5 406.5,162.5C 408.101,157.293 410.268,152.293 413,147.5C 414.584,146.139 416.418,145.472 418.5,145.5 Z"/></g>
<g><path style="opacity:1" fill="#f99a4a" d="M 418.5,144.5 C 418.5,144.833 418.5,145.167 418.5,145.5C 416.418,145.472 414.584,146.139 413,147.5C 410.268,152.293 408.101,157.293 406.5,162.5C 403.287,162.81 400.287,162.477 397.5,161.5C 399.435,157.311 399.435,152.977 397.5,148.5C 400.306,147.832 402.972,147.166 405.5,146.5C 406.167,146.167 406.833,145.833 407.5,145.5C 411.064,144.577 414.731,144.244 418.5,144.5 Z"/></g>
<g><path style="opacity:1" fill="#183360" d="M 382.5,142.5 C 382.189,147.952 383.189,153.286 385.5,158.5C 384.026,159.436 383.026,160.77 382.5,162.5C 378.167,162.5 373.833,162.5 369.5,162.5C 370.117,157.415 371.117,152.415 372.5,147.5C 374.197,142.976 377.531,141.309 382.5,142.5 Z"/></g>
<g><path style="opacity:1" fill="#f0edee" d="M 407.5,145.5 C 406.833,145.833 406.167,146.167 405.5,146.5C 404.29,146.068 403.29,145.401 402.5,144.5C 401.537,143.637 401.537,142.97 402.5,142.5C 404.396,143.275 406.063,144.275 407.5,145.5 Z"/></g>
<g><path style="opacity:1" fill="#214389" d="M 387.5,141.5 C 390.57,141.368 393.57,141.701 396.5,142.5C 398.5,143.167 400.5,143.833 402.5,144.5C 403.29,145.401 404.29,146.068 405.5,146.5C 402.972,147.166 400.306,147.832 397.5,148.5C 399.435,152.977 399.435,157.311 397.5,161.5C 396.833,161.5 396.5,161.833 396.5,162.5C 393.167,162.5 389.833,162.5 386.5,162.5C 386.167,161.167 385.833,159.833 385.5,158.5C 383.189,153.286 382.189,147.952 382.5,142.5C 384.042,141.699 385.708,141.366 387.5,141.5 Z"/></g>
<g><path style="opacity:1" fill="#f9ab79" d="M 396.5,131.5 C 397.496,131.414 398.329,131.748 399,132.5C 399.045,135.334 399.879,137.834 401.5,140C 406.434,141.16 411.434,141.66 416.5,141.5C 417.29,140.391 417.79,139.058 418,137.5C 419.011,136.663 420.178,136.33 421.5,136.5C 421.977,139.917 420.977,142.584 418.5,144.5C 414.731,144.244 411.064,144.577 407.5,145.5C 406.063,144.275 404.396,143.275 402.5,142.5C 401.537,142.97 401.537,143.637 402.5,144.5C 400.5,143.833 398.5,143.167 396.5,142.5C 395.143,140.501 395.81,139.335 398.5,139C 397.643,138.311 396.977,137.478 396.5,136.5C 392.555,135.509 388.555,135.176 384.5,135.5C 385.209,134.596 386.209,134.263 387.5,134.5C 389.5,134.5 391.5,134.5 393.5,134.5C 394.5,134.5 395.5,134.5 396.5,134.5C 396.5,133.5 396.5,132.5 396.5,131.5 Z"/></g>
<g><path style="opacity:1" fill="#f48d3c" d="M 372.5,138.5 C 377.203,138.437 381.87,138.771 386.5,139.5C 387.338,139.842 387.672,140.508 387.5,141.5C 385.708,141.366 384.042,141.699 382.5,142.5C 377.531,141.309 374.197,142.976 372.5,147.5C 370.801,147.34 369.134,147.506 367.5,148C 363.972,152.128 362.638,156.961 363.5,162.5C 361.833,162.5 360.167,162.5 358.5,162.5C 358.5,159.5 358.5,156.5 358.5,153.5C 360.653,151.206 362.32,148.54 363.5,145.5C 364.488,144.205 365.488,142.872 366.5,141.5C 367.911,139.461 369.911,138.461 372.5,138.5 Z"/></g>
<g><path style="opacity:1" fill="#e2ecf8" d="M 363.5,145.5 C 362.32,148.54 360.653,151.206 358.5,153.5C 358.5,148.5 358.5,143.5 358.5,138.5C 359.496,138.586 360.329,138.252 361,137.5C 362.707,139.909 363.54,142.575 363.5,145.5 Z"/></g>
<g><path style="opacity:1" fill="#fca663" d="M 426.5,99.5 C 426.5,114.833 426.5,130.167 426.5,145.5C 423.833,145.5 421.167,145.5 418.5,145.5C 418.5,145.167 418.5,144.833 418.5,144.5C 420.977,142.584 421.977,139.917 421.5,136.5C 420.178,136.33 419.011,136.663 418,137.5C 417.79,139.058 417.29,140.391 416.5,141.5C 416.5,139.5 416.5,137.5 416.5,135.5C 418.833,135.5 421.167,135.5 423.5,135.5C 423.66,130.434 423.16,125.434 422,120.5C 419.865,118.722 417.365,118.055 414.5,118.5C 413.596,117.791 413.263,116.791 413.5,115.5C 417.211,116.154 419.211,114.654 419.5,111C 419.378,107.796 418.378,104.963 416.5,102.5C 416.953,101.542 417.619,100.708 418.5,100C 421.146,99.5026 423.813,99.3359 426.5,99.5 Z"/></g>
<g><path style="opacity:1" fill="#b53f36" d="M 384.5,135.5 C 388.555,135.176 392.555,135.509 396.5,136.5C 396.977,137.478 397.643,138.311 398.5,139C 395.81,139.335 395.143,140.501 396.5,142.5C 393.57,141.701 390.57,141.368 387.5,141.5C 387.672,140.508 387.338,139.842 386.5,139.5C 385.833,138.167 385.167,136.833 384.5,135.5 Z"/></g>
<g><path style="opacity:1" fill="#ddeaf0" d="M 372.5,138.5 C 369.911,138.461 367.911,139.461 366.5,141.5C 365.916,137.561 367.082,133.894 370,130.5C 370.635,131.966 371.469,133.3 372.5,134.5C 371.193,135.865 371.193,137.198 372.5,138.5 Z"/></g>
<g><path style="opacity:1" fill="#fefcfa" d="M 406.5,117.5 C 408.104,118.287 408.771,119.62 408.5,121.5C 411.32,121.913 413.32,120.913 414.5,118.5C 417.365,118.055 419.865,118.722 422,120.5C 423.16,125.434 423.66,130.434 423.5,135.5C 421.167,135.5 418.833,135.5 416.5,135.5C 416.5,137.5 416.5,139.5 416.5,141.5C 411.434,141.66 406.434,141.16 401.5,140C 399.879,137.834 399.045,135.334 399,132.5C 398.329,131.748 397.496,131.414 396.5,131.5C 397.185,124.833 400.518,120.166 406.5,117.5 Z"/></g>
<g><path style="opacity:1" fill="#a3cd9a" d="M 389.5,126.5 C 388.086,128.054 386.419,129.388 384.5,130.5C 385.524,131.852 386.524,133.185 387.5,134.5C 386.209,134.263 385.209,134.596 384.5,135.5C 385.167,136.833 385.833,138.167 386.5,139.5C 381.87,138.771 377.203,138.437 372.5,138.5C 371.193,137.198 371.193,135.865 372.5,134.5C 371.469,133.3 370.635,131.966 370,130.5C 367.082,133.894 365.916,137.561 366.5,141.5C 365.488,142.872 364.488,144.205 363.5,145.5C 363.54,142.575 362.707,139.909 361,137.5C 360.329,138.252 359.496,138.586 358.5,138.5C 358.5,133.833 358.5,129.167 358.5,124.5C 359.165,126.369 359.831,128.369 360.5,130.5C 360.74,125.201 362.24,124.535 365,128.5C 365.667,129.833 365.667,131.167 365,132.5C 362.093,134.808 361.759,137.475 364,140.5C 365.078,136.509 366.578,132.676 368.5,129C 367.392,126.888 365.892,125.054 364,123.5C 363.299,119.24 364.965,116.24 369,114.5C 369.186,116.9 369.686,119.234 370.5,121.5C 371.167,118.5 371.833,115.5 372.5,112.5C 375.023,110.592 377.69,110.259 380.5,111.5C 379.071,113.331 378.571,115.331 379,117.5C 381.122,113.703 384.122,111.037 388,109.5C 394.503,110.395 396.003,113.562 392.5,119C 389.774,119.182 387.107,119.682 384.5,120.5C 384.709,121.086 385.043,121.586 385.5,122C 387.5,122.333 389.5,122.667 391.5,123C 390.177,123.816 389.511,124.983 389.5,126.5 Z"/></g>
<g><path style="opacity:1" fill="#f6ae79" d="M 413.5,115.5 C 413.263,116.791 413.596,117.791 414.5,118.5C 413.32,120.913 411.32,121.913 408.5,121.5C 408.771,119.62 408.104,118.287 406.5,117.5C 404.229,115.388 402.896,112.721 402.5,109.5C 403.163,107.958 403.83,106.291 404.5,104.5C 406.233,107.649 408.566,109.315 411.5,109.5C 412.681,111.135 412.681,112.802 411.5,114.5C 411.957,115.298 412.624,115.631 413.5,115.5 Z"/></g>
<g><path style="opacity:1" fill="#253461" d="M 416.5,102.5 C 418.378,104.963 419.378,107.796 419.5,111C 419.211,114.654 417.211,116.154 413.5,115.5C 412.624,115.631 411.957,115.298 411.5,114.5C 412.681,112.802 412.681,111.135 411.5,109.5C 408.566,109.315 406.233,107.649 404.5,104.5C 403.83,106.291 403.163,107.958 402.5,109.5C 401.021,106.857 401.354,104.357 403.5,102C 408.169,98.8684 412.502,99.035 416.5,102.5 Z"/></g>
<g><path style="opacity:1" fill="#e0ebfa" d="M 360.5,90.5 C 382.167,90.5 403.833,90.5 425.5,90.5C 422.742,91.9665 423.075,92.6332 426.5,92.5C 426.5,94.8333 426.5,97.1667 426.5,99.5C 423.813,99.3359 421.146,99.5026 418.5,100C 417.619,100.708 416.953,101.542 416.5,102.5C 412.502,99.035 408.169,98.8684 403.5,102C 401.354,104.357 401.021,106.857 402.5,109.5C 402.896,112.721 404.229,115.388 406.5,117.5C 400.518,120.166 397.185,124.833 396.5,131.5C 396.5,132.5 396.5,133.5 396.5,134.5C 395.5,134.5 394.5,134.5 393.5,134.5C 395.71,129.969 394.377,127.302 389.5,126.5C 389.511,124.983 390.177,123.816 391.5,123C 389.5,122.667 387.5,122.333 385.5,122C 385.043,121.586 384.709,121.086 384.5,120.5C 387.107,119.682 389.774,119.182 392.5,119C 396.003,113.562 394.503,110.395 388,109.5C 384.122,111.037 381.122,113.703 379,117.5C 378.571,115.331 379.071,113.331 380.5,111.5C 377.69,110.259 375.023,110.592 372.5,112.5C 371.833,115.5 371.167,118.5 370.5,121.5C 369.686,119.234 369.186,116.9 369,114.5C 364.965,116.24 363.299,119.24 364,123.5C 365.892,125.054 367.392,126.888 368.5,129C 366.578,132.676 365.078,136.509 364,140.5C 361.759,137.475 362.093,134.808 365,132.5C 365.667,131.167 365.667,129.833 365,128.5C 362.24,124.535 360.74,125.201 360.5,130.5C 359.831,128.369 359.165,126.369 358.5,124.5C 358.172,113.654 358.506,102.987 359.5,92.5C 359.5,93.8333 359.5,95.1667 359.5,96.5C 360.5,96.5 361.5,96.5 362.5,96.5C 362.833,100.5 363.167,100.5 363.5,96.5C 384.167,96.5 404.833,96.5 425.5,96.5C 425.5,95.5 425.5,94.5 425.5,93.5C 408.5,93.5 391.5,93.5 374.5,93.5C 389.995,92.6686 405.661,92.1686 421.5,92C 401.996,91.171 382.662,91.3377 363.5,92.5C 363.167,92.5 362.833,92.5 362.5,92.5C 361.833,91.8333 361.167,91.1667 360.5,90.5 Z"/></g>
<g><path style="opacity:1" fill="#7fb377" d="M 389.5,126.5 C 394.377,127.302 395.71,129.969 393.5,134.5C 391.5,134.5 389.5,134.5 387.5,134.5C 386.524,133.185 385.524,131.852 384.5,130.5C 386.419,129.388 388.086,128.054 389.5,126.5 Z"/></g>
<g><path style="opacity:1" fill="#b2cffb" d="M 369.5,97.5 C 376.386,96.0577 380.72,98.7243 382.5,105.5C 376.872,106.495 371.206,106.829 365.5,106.5C 365.482,102.871 366.816,99.8707 369.5,97.5 Z"/></g>
<g><path style="opacity:1" fill="#fefefe" d="M 359.5,92.5 C 360.5,92.5 361.5,92.5 362.5,92.5C 362.833,92.5 363.167,92.5 363.5,92.5C 367.269,92.244 370.936,92.5773 374.5,93.5C 391.5,93.5 408.5,93.5 425.5,93.5C 425.5,94.5 425.5,95.5 425.5,96.5C 404.833,96.5 384.167,96.5 363.5,96.5C 363.167,100.5 362.833,100.5 362.5,96.5C 361.5,96.5 360.5,96.5 359.5,96.5C 359.5,95.1667 359.5,93.8333 359.5,92.5 Z"/></g>
<g><path style="opacity:1" fill="#afcdf5" d="M 363.5,92.5 C 382.662,91.3377 401.996,91.171 421.5,92C 405.661,92.1686 389.995,92.6686 374.5,93.5C 370.936,92.5773 367.269,92.244 363.5,92.5 Z"/></g>
<g><path style="opacity:1" fill="#e9f0fd" d="M 362.5,71.5 C 361.791,72.404 360.791,72.7373 359.5,72.5C 359.5,73.5 359.5,74.5 359.5,75.5C 363.5,76.1667 363.5,76.8333 359.5,77.5C 359.5,78.8333 359.5,80.1667 359.5,81.5C 381.474,80.5435 403.474,80.2101 425.5,80.5C 425.5,79.5 425.5,78.5 425.5,77.5C 404.856,78.7987 384.189,78.7987 363.5,77.5C 384.156,76.5003 404.823,76.167 425.5,76.5C 425.635,74.4458 424.968,72.7791 423.5,71.5C 424.5,71.5 425.5,71.5 426.5,71.5C 426.786,77.2586 426.452,82.9252 425.5,88.5C 342.833,87.8333 342.833,87.1667 425.5,86.5C 425.5,85.5 425.5,84.5 425.5,83.5C 403.5,83.5 381.5,83.5 359.5,83.5C 359.5,84.5 359.5,85.5 359.5,86.5C 363.297,87.0886 363.297,88.0886 359.5,89.5C 358.587,83.5594 358.254,77.5594 358.5,71.5C 359.833,71.5 361.167,71.5 362.5,71.5 Z"/></g>
<g><path style="opacity:1" fill="#fefefe" d="M 425.5,88.5 C 425.5,89.1667 425.5,89.8333 425.5,90.5C 403.833,90.5 382.167,90.5 360.5,90.5C 359.833,90.5 359.5,90.1667 359.5,89.5C 363.297,88.0886 363.297,87.0886 359.5,86.5C 359.5,85.5 359.5,84.5 359.5,83.5C 381.5,83.5 403.5,83.5 425.5,83.5C 425.5,84.5 425.5,85.5 425.5,86.5C 342.833,87.1667 342.833,87.8333 425.5,88.5 Z"/></g>
<g><path style="opacity:1" fill="#f9fbfe" d="M 362.5,71.5 C 382.687,71.6692 403.02,71.6692 423.5,71.5C 424.968,72.7791 425.635,74.4458 425.5,76.5C 404.823,76.167 384.156,76.5003 363.5,77.5C 384.189,78.7987 404.856,78.7987 425.5,77.5C 425.5,78.5 425.5,79.5 425.5,80.5C 403.474,80.2101 381.474,80.5435 359.5,81.5C 359.5,80.1667 359.5,78.8333 359.5,77.5C 363.5,76.8333 363.5,76.1667 359.5,75.5C 359.5,74.5 359.5,73.5 359.5,72.5C 360.791,72.7373 361.791,72.404 362.5,71.5 Z"/></g>
<g><path style="opacity:1" fill="#8ab3ee" d="M 316.5,162.5 C 321.036,162.703 323.702,165.036 324.5,169.5C 293.833,169.5 263.167,169.5 232.5,169.5C 232.622,166.708 233.956,164.708 236.5,163.5C 239.119,163.232 241.619,163.565 244,164.5C 260.265,163.84 276.431,163.174 292.5,162.5C 294.5,162.5 296.5,162.5 298.5,162.5C 299.5,162.5 300.5,162.5 301.5,162.5C 303.5,162.5 305.5,162.5 307.5,162.5C 309.167,162.5 310.833,162.5 312.5,162.5C 312.5,139.167 312.5,115.833 312.5,92.5C 290.006,91.5025 267.339,91.1692 244.5,91.5C 243.833,115.003 243.167,138.67 242.5,162.5C 241.5,131.174 241.167,99.8404 241.5,68.5C 266.167,68.5 290.833,68.5 315.5,68.5C 315.168,100.004 315.502,131.338 316.5,162.5 Z"/></g>
<g><path style="opacity:1" fill="#fdad6e" d="M 302.5,136.5 C 302.262,145.171 301.928,153.838 301.5,162.5C 300.5,162.5 299.5,162.5 298.5,162.5C 298.64,153.51 299.973,144.843 302.5,136.5 Z"/></g>
<g><path style="opacity:1" fill="#e2782f" d="M 269.5,152.5 C 275.5,152.5 281.5,152.5 287.5,152.5C 289.391,155.614 290.724,158.948 291.5,162.5C 288.5,162.5 285.5,162.5 282.5,162.5C 282.607,160.097 281.607,158.264 279.5,157C 274.414,155.62 269.414,154.454 264.5,153.5C 266.117,152.962 267.784,152.629 269.5,152.5 Z"/></g>
<g><path style="opacity:1" fill="#fa9643" d="M 264.5,153.5 C 269.414,154.454 274.414,155.62 279.5,157C 281.607,158.264 282.607,160.097 282.5,162.5C 271.833,162.5 261.167,162.5 250.5,162.5C 250.557,161.391 250.89,160.391 251.5,159.5C 255.72,157.223 260.053,155.223 264.5,153.5 Z"/></g>
<g><path style="opacity:1" fill="#4b72cd" d="M 251.5,147.5 C 251.511,149.017 252.177,150.184 253.5,151C 258.823,151.499 264.156,151.666 269.5,151.5C 269.5,151.833 269.5,152.167 269.5,152.5C 267.784,152.629 266.117,152.962 264.5,153.5C 260.053,155.223 255.72,157.223 251.5,159.5C 249.96,157.162 249.294,154.495 249.5,151.5C 249.66,149.847 250.326,148.514 251.5,147.5 Z"/></g>
<g><path style="opacity:1" fill="#f7af7b" d="M 265.5,132.5 C 266.496,132.414 267.329,132.748 268,133.5C 268.257,137.377 269.257,141.043 271,144.5C 272.488,146.16 274.321,147.16 276.5,147.5C 275.555,150.987 273.222,152.32 269.5,151.5C 264.156,151.666 258.823,151.499 253.5,151C 252.177,150.184 251.511,149.017 251.5,147.5C 250.061,145.412 249.394,143.079 249.5,140.5C 248.781,138.236 248.448,135.903 248.5,133.5C 250.717,134.369 253.05,134.702 255.5,134.5C 255.176,138.555 255.509,142.555 256.5,146.5C 258.833,147.167 261.167,147.833 263.5,148.5C 264.823,143.248 265.49,137.915 265.5,132.5 Z"/></g>
<g><path style="opacity:1" fill="#fa933f" d="M 302.5,136.5 C 303.725,137.152 304.392,138.319 304.5,140C 305.642,147.49 306.642,154.99 307.5,162.5C 305.5,162.5 303.5,162.5 301.5,162.5C 301.928,153.838 302.262,145.171 302.5,136.5 Z"/></g>
<g><path style="opacity:1" fill="#294187" d="M 281.5,140.5 C 287.358,140.178 293.025,140.511 298.5,141.5C 296.678,144.472 294.844,147.472 293,150.5C 291.556,152.155 289.722,152.822 287.5,152.5C 281.5,152.5 275.5,152.5 269.5,152.5C 269.5,152.167 269.5,151.833 269.5,151.5C 273.222,152.32 275.555,150.987 276.5,147.5C 278.4,145.381 280.066,143.047 281.5,140.5 Z"/></g>
<g><path style="opacity:1" fill="#ebc9ab" d="M 246.5,138.5 C 247.5,139.167 248.5,139.833 249.5,140.5C 249.394,143.079 250.061,145.412 251.5,147.5C 250.326,148.514 249.66,149.847 249.5,151.5C 247.124,147.607 246.124,143.273 246.5,138.5 Z"/></g>
<g><path style="opacity:1" fill="#f8f4f4" d="M 244.5,124.5 C 244.833,124.5 245.167,124.5 245.5,124.5C 245.283,129.23 245.617,133.897 246.5,138.5C 246.124,143.273 247.124,147.607 249.5,151.5C 249.294,154.495 249.96,157.162 251.5,159.5C 250.89,160.391 250.557,161.391 250.5,162.5C 248.5,162.5 246.5,162.5 244.5,162.5C 244.5,149.833 244.5,137.167 244.5,124.5 Z"/></g>
<g><path style="opacity:1" fill="#f7892f" d="M 305.5,127.5 C 306.757,128.623 306.424,129.289 304.5,129.5C 304.328,128.508 304.662,127.842 305.5,127.5 Z"/></g>
<g><path style="opacity:1" fill="#f79d5a" d="M 303.5,124.5 C 303.5,125.167 303.5,125.833 303.5,126.5C 302.531,127.309 301.698,128.309 301,129.5C 300.308,128.975 299.808,128.308 299.5,127.5C 300.852,126.476 302.185,125.476 303.5,124.5 Z"/></g>
<g><path style="opacity:1" fill="#6f95ed" d="M 254.5,124.5 C 256.519,127.929 258.852,128.262 261.5,125.5C 263.981,125.323 265.814,126.323 267,128.5C 267.484,130.193 266.984,131.527 265.5,132.5C 265.49,137.915 264.823,143.248 263.5,148.5C 261.167,147.833 258.833,147.167 256.5,146.5C 255.509,142.555 255.176,138.555 255.5,134.5C 253.05,134.702 250.717,134.369 248.5,133.5C 246.255,131.583 245.922,129.25 247.5,126.5C 249.51,124.829 251.843,124.162 254.5,124.5 Z"/></g>
<g><path style="opacity:1" fill="#f9ae7a" d="M 264.5,115.5 C 264.5,116.5 264.5,117.5 264.5,118.5C 263.508,120.456 262.508,122.456 261.5,124.5C 261.5,124.833 261.5,125.167 261.5,125.5C 258.852,128.262 256.519,127.929 254.5,124.5C 255.388,121.946 255.721,119.279 255.5,116.5C 258.624,116.057 260.957,114.39 262.5,111.5C 264.111,112.32 264.778,113.654 264.5,115.5 Z"/></g>
<g><path style="opacity:1" fill="#b44138" d="M 264.5,115.5 C 264.778,113.654 264.111,112.32 262.5,111.5C 260.957,114.39 258.624,116.057 255.5,116.5C 255.721,119.279 255.388,121.946 254.5,124.5C 251.843,124.162 249.51,124.829 247.5,126.5C 245.922,129.25 246.255,131.583 248.5,133.5C 248.448,135.903 248.781,138.236 249.5,140.5C 248.5,139.833 247.5,139.167 246.5,138.5C 245.617,133.897 245.283,129.23 245.5,124.5C 249.803,121.394 251.637,117.061 251,111.5C 253.46,106.126 257.294,104.959 262.5,108C 263.211,109.255 264.044,110.421 265,111.5C 265.765,113.066 265.598,114.399 264.5,115.5 Z"/></g>
<g><path style="opacity:1" fill="#e0ebfb" d="M 244.5,91.5 C 267.339,91.1692 290.006,91.5025 312.5,92.5C 301.828,92.3335 291.161,92.5002 280.5,93C 283.333,97.8333 286.167,102.667 289,107.5C 294.066,113.059 298.9,118.725 303.5,124.5C 302.185,125.476 300.852,126.476 299.5,127.5C 299.808,128.308 300.308,128.975 301,129.5C 301.698,128.309 302.531,127.309 303.5,126.5C 304.492,126.328 305.158,126.662 305.5,127.5C 304.662,127.842 304.328,128.508 304.5,129.5C 303.957,129.56 303.624,129.893 303.5,130.5C 304.376,131.251 305.376,131.751 306.5,132C 305.062,132.219 303.729,132.719 302.5,133.5C 303.791,134.527 303.791,135.527 302.5,136.5C 299.973,144.843 298.64,153.51 298.5,162.5C 296.5,162.5 294.5,162.5 292.5,162.5C 292.167,162.5 291.833,162.5 291.5,162.5C 290.724,158.948 289.391,155.614 287.5,152.5C 289.722,152.822 291.556,152.155 293,150.5C 294.844,147.472 296.678,144.472 298.5,141.5C 299.043,141.44 299.376,141.107 299.5,140.5C 293.346,139.183 287.346,139.183 281.5,140.5C 280.066,143.047 278.4,145.381 276.5,147.5C 274.321,147.16 272.488,146.16 271,144.5C 269.257,141.043 268.257,137.377 268,133.5C 267.329,132.748 266.496,132.414 265.5,132.5C 266.984,131.527 267.484,130.193 267,128.5C 265.814,126.323 263.981,125.323 261.5,125.5C 261.5,125.167 261.5,124.833 261.5,124.5C 263.969,123.393 264.969,121.393 264.5,118.5C 264.5,117.5 264.5,116.5 264.5,115.5C 265.598,114.399 265.765,113.066 265,111.5C 264.044,110.421 263.211,109.255 262.5,108C 257.294,104.959 253.46,106.126 251,111.5C 251.637,117.061 249.803,121.394 245.5,124.5C 245.167,124.5 244.833,124.5 244.5,124.5C 244.5,113.5 244.5,102.5 244.5,91.5 Z"/></g>
<g><path style="opacity:1" fill="#6278ac" d="M 281.5,140.5 C 287.346,139.183 293.346,139.183 299.5,140.5C 299.376,141.107 299.043,141.44 298.5,141.5C 293.025,140.511 287.358,140.178 281.5,140.5 Z"/></g>
<g><path style="opacity:1" fill="#b73f2f" d="M 264.5,118.5 C 264.969,121.393 263.969,123.393 261.5,124.5C 262.508,122.456 263.508,120.456 264.5,118.5 Z"/></g>
<g><path style="opacity:1" fill="#fefdfd" d="M 312.5,92.5 C 312.5,115.833 312.5,139.167 312.5,162.5C 310.833,162.5 309.167,162.5 307.5,162.5C 306.642,154.99 305.642,147.49 304.5,140C 304.392,138.319 303.725,137.152 302.5,136.5C 303.791,135.527 303.791,134.527 302.5,133.5C 303.729,132.719 305.062,132.219 306.5,132C 305.376,131.751 304.376,131.251 303.5,130.5C 303.624,129.893 303.957,129.56 304.5,129.5C 306.424,129.289 306.757,128.623 305.5,127.5C 305.158,126.662 304.492,126.328 303.5,126.5C 303.5,125.833 303.5,125.167 303.5,124.5C 298.9,118.725 294.066,113.059 289,107.5C 286.167,102.667 283.333,97.8333 280.5,93C 291.161,92.5002 301.828,92.3335 312.5,92.5 Z"/></g>
<g><path style="opacity:1" fill="#d0e0f9" d="M 244.5,71.5 C 267.167,70.1667 289.833,70.1667 312.5,71.5C 300.167,71.5 287.833,71.5 275.5,71.5C 276.244,76.8846 277.244,82.218 278.5,87.5C 289.833,87.5 301.167,87.5 312.5,87.5C 289.833,88.8333 267.167,88.8333 244.5,87.5C 251.508,87.6663 258.508,87.4996 265.5,87C 269.069,82.6977 271.736,77.8643 273.5,72.5C 263.856,71.5016 254.19,71.1682 244.5,71.5 Z"/></g>
<g><path style="opacity:1" fill="#fefefe" d="M 312.5,71.5 C 312.5,76.8333 312.5,82.1667 312.5,87.5C 301.167,87.5 289.833,87.5 278.5,87.5C 277.244,82.218 276.244,76.8846 275.5,71.5C 287.833,71.5 300.167,71.5 312.5,71.5 Z"/></g>
<g><path style="opacity:1" fill="#fefefe" d="M 244.5,71.5 C 254.19,71.1682 263.856,71.5016 273.5,72.5C 271.736,77.8643 269.069,82.6977 265.5,87C 258.508,87.4996 251.508,87.6663 244.5,87.5C 244.5,82.1667 244.5,76.8333 244.5,71.5 Z"/></g>
<g><path style="opacity:1" fill="#aecdfb" d="M 202.5,182.5 C 290.167,182.5 377.833,182.5 465.5,182.5C 466.833,182.5 468.167,182.5 469.5,182.5C 469.756,186.269 469.423,189.936 468.5,193.5C 467.791,194.404 466.791,194.737 465.5,194.5C 377.833,194.5 290.167,194.5 202.5,194.5C 201.167,194.5 199.833,194.5 198.5,194.5C 198.5,190.5 198.5,186.5 198.5,182.5C 199.833,182.5 201.167,182.5 202.5,182.5 Z"/></g>
<g><path style="opacity:0.999" fill="#eaf3fa" d="M 468.5,193.5 C 470.288,193.215 471.955,193.548 473.5,194.5C 476.955,208.601 484.289,220.101 495.5,229C 498.961,231.066 502.627,232.566 506.5,233.5C 507.266,235.684 507.933,238.018 508.5,240.5C 509.325,241.386 510.325,241.719 511.5,241.5C 511.5,255.833 511.5,270.167 511.5,284.5C 497.482,275.048 482.148,268.714 465.5,265.5C 465.5,241.833 465.5,218.167 465.5,194.5C 466.791,194.737 467.791,194.404 468.5,193.5 Z"/></g>
<g><path style="opacity:1" fill="#cce0fa" d="M 202.5,194.5 C 290.167,194.5 377.833,194.5 465.5,194.5C 465.5,218.167 465.5,241.833 465.5,265.5C 465.248,296.168 464.915,326.834 464.5,357.5C 377.167,357.5 289.833,357.5 202.5,357.5C 202.5,357.167 202.5,356.833 202.5,356.5C 202.5,329.833 202.5,303.167 202.5,276.5C 202.5,249.167 202.5,221.833 202.5,194.5 Z"/></g>
<g><path style="opacity:1" fill="#adccfb" d="M 235.5,207.5 C 264.167,207.5 292.833,207.5 321.5,207.5C 321.5,213.5 321.5,219.5 321.5,225.5C 292.833,225.5 264.167,225.5 235.5,225.5C 235.5,219.5 235.5,213.5 235.5,207.5 Z"/></g>
<g><path style="opacity:1" fill="#adccfb" d="M 349.5,207.5 C 378.167,207.5 406.833,207.5 435.5,207.5C 435.5,213.5 435.5,219.5 435.5,225.5C 406.833,225.5 378.167,225.5 349.5,225.5C 349.5,219.5 349.5,213.5 349.5,207.5 Z"/></g>
<g><path style="opacity:1" fill="#87b2ef" d="M 241.5,233.5 C 266.167,233.5 290.833,233.5 315.5,233.5C 315.5,265.167 315.5,296.833 315.5,328.5C 314.168,317.019 313.501,305.186 313.5,293C 313.519,280.475 313.852,267.975 314.5,255.5C 313.909,249.015 313.243,242.681 312.5,236.5C 289.833,236.5 267.167,236.5 244.5,236.5C 244.178,242.358 244.511,248.025 245.5,253.5C 245.567,254.959 245.234,256.292 244.5,257.5C 243.833,281.003 243.167,304.67 242.5,328.5C 241.5,296.84 241.167,265.174 241.5,233.5 Z"/></g>
<g><path style="opacity:1" fill="#aac9f4" d="M 241.5,233.5 C 266.328,232.502 291.328,232.169 316.5,232.5C 316.5,264.167 316.5,295.833 316.5,327.5C 317.791,327.263 318.791,327.596 319.5,328.5C 318.167,328.5 316.833,328.5 315.5,328.5C 315.5,296.833 315.5,265.167 315.5,233.5C 290.833,233.5 266.167,233.5 241.5,233.5 Z"/></g>
<g><path style="opacity:1" fill="#84afed" d="M 355.5,233.5 C 380.167,233.5 404.833,233.5 429.5,233.5C 429.5,265.167 429.5,296.833 429.5,328.5C 428.168,317.019 427.501,305.186 427.5,293C 427.708,273.743 428.041,254.576 428.5,235.5C 428.167,235.167 427.833,234.833 427.5,234.5C 404.372,235.157 381.372,235.824 358.5,236.5C 357.757,242.681 357.091,249.015 356.5,255.5C 357.814,279.816 357.814,304.15 356.5,328.5C 355.5,296.84 355.167,265.174 355.5,233.5 Z"/></g>
<g><path style="opacity:1" fill="#abcaf4" d="M 355.5,233.5 C 380.328,232.502 405.328,232.169 430.5,232.5C 430.5,264.167 430.5,295.833 430.5,327.5C 431.791,327.263 432.791,327.596 433.5,328.5C 432.167,328.5 430.833,328.5 429.5,328.5C 429.5,296.833 429.5,265.167 429.5,233.5C 404.833,233.5 380.167,233.5 355.5,233.5 Z"/></g>
<g><path style="opacity:1" fill="#dfeafc" d="M 465.5,265.5 C 482.148,268.714 497.482,275.048 511.5,284.5C 511.5,307.167 511.5,329.833 511.5,352.5C 511.5,352.833 511.5,353.167 511.5,353.5C 508.925,355.845 507.925,358.845 508.5,362.5C 506.83,362.249 505.33,361.582 504,360.5C 501.871,355.651 500.205,350.651 499,345.5C 492.711,330.601 481.878,320.601 466.5,315.5C 465.501,329.484 465.167,343.484 465.5,357.5C 465.167,357.5 464.833,357.5 464.5,357.5C 464.915,326.834 465.248,296.168 465.5,265.5 Z"/></g>
<g><path style="opacity:0.004" fill="#dfebfc" d="M 167.5,278.5 C 168.833,279.167 168.833,279.167 167.5,278.5 Z"/></g>
<g><path style="opacity:1" fill="#bde5b3" d="M 202.5,276.5 C 202.5,303.167 202.5,329.833 202.5,356.5C 201.504,356.414 200.671,356.748 200,357.5C 195.747,355.082 191.247,353.248 186.5,352C 168.204,348.398 152.87,353.398 140.5,367C 127.609,373.427 113.942,376.094 99.5,375C 91.5531,377.768 87.2197,383.268 86.5,391.5C 144.905,391.829 203.238,391.496 261.5,390.5C 262.043,390.56 262.376,390.893 262.5,391.5C 196.503,392.5 130.503,392.833 64.5,392.5C 63.1614,368.675 73.4948,352.175 95.5,343C 109.241,338.065 123.241,334.065 137.5,331C 139.041,329.421 140.208,327.587 141,325.5C 142.638,314.794 145.471,304.461 149.5,294.5C 152.5,290.833 155.833,287.5 159.5,284.5C 172.963,277.475 187.296,274.808 202.5,276.5 Z"/></g>
<g><path style="opacity:0.004" fill="#dfebfc" d="M 161.5,281.5 C 162.833,282.167 162.833,282.167 161.5,281.5 Z"/></g>
<g><path style="opacity:0.004" fill="#deebfc" d="M 159.5,284.5 C 158.833,283.167 158.833,283.167 159.5,284.5 Z"/></g>
<g><path style="opacity:0.004" fill="#dfebfc" d="M 156.5,284.5 C 157.833,285.167 157.833,285.167 156.5,284.5 Z"/></g>
<g><path style="opacity:1" fill="#9bc1f9" d="M 515.5,354.5 C 515.083,355.124 514.416,355.457 513.5,355.5C 512.287,355.253 511.62,354.586 511.5,353.5C 511.5,353.167 511.5,352.833 511.5,352.5C 512.167,315.664 512.833,278.664 513.5,241.5C 514.173,279.233 514.839,316.9 515.5,354.5 Z"/></g>
<g><path style="opacity:0.658" fill="#bdd6fa" d="M 516.5,354.5 C 516.167,354.5 515.833,354.5 515.5,354.5C 514.839,316.9 514.173,279.233 513.5,241.5C 512.833,278.664 512.167,315.664 511.5,352.5C 511.5,329.833 511.5,307.167 511.5,284.5C 511.5,270.167 511.5,255.833 511.5,241.5C 510.325,241.719 509.325,241.386 508.5,240.5C 507.933,238.018 507.266,235.684 506.5,233.5C 505.816,230.265 504.816,227.098 503.5,224C 505.604,221.227 508.27,219.227 511.5,218C 513.218,213.254 514.218,213.421 514.5,218.5C 517.97,219.288 520.637,221.288 522.5,224.5C 521.272,230.14 520.105,235.806 519,241.5C 517.989,242.337 516.822,242.67 515.5,242.5C 515.179,279.876 515.513,317.21 516.5,354.5 Z"/></g>
<g><path style="opacity:0.004" fill="#e0ebfd" d="M 149.5,294.5 C 149.167,294.5 148.833,294.5 148.5,294.5C 148.833,291.833 149.167,291.833 149.5,294.5 Z"/></g>
<g><path style="opacity:0.004" fill="#dfebfc" d="M 148.5,294.5 C 147.833,295.167 147.833,295.167 148.5,294.5 Z"/></g>
<g><path style="opacity:1" fill="#81b478" d="M 508.5,362.5 C 508.5,372.5 508.5,382.5 508.5,392.5C 495.167,392.5 481.833,392.5 468.5,392.5C 468.5,380.833 468.5,369.167 468.5,357.5C 467.5,357.5 466.5,357.5 465.5,357.5C 465.167,343.484 465.501,329.484 466.5,315.5C 481.878,320.601 492.711,330.601 499,345.5C 500.205,350.651 501.871,355.651 504,360.5C 505.33,361.582 506.83,362.249 508.5,362.5 Z"/></g>
<g><path style="opacity:1" fill="#92b8ee" d="M 241.5,233.5 C 241.167,265.174 241.5,296.84 242.5,328.5C 243.167,304.67 243.833,281.003 244.5,257.5C 244.5,281.167 244.5,304.833 244.5,328.5C 252.684,328.826 260.684,328.492 268.5,327.5C 268.5,327.167 268.5,326.833 268.5,326.5C 273.945,328.345 279.612,329.012 285.5,328.5C 288.833,328.5 292.167,328.5 295.5,328.5C 301.358,328.822 307.025,328.489 312.5,327.5C 312.5,304.167 312.5,280.833 312.5,257.5C 311.5,257.5 310.5,257.5 309.5,257.5C 310.806,256.533 311.473,255.199 311.5,253.5C 312.489,248.025 312.822,242.358 312.5,236.5C 313.243,242.681 313.909,249.015 314.5,255.5C 313.852,267.975 313.519,280.475 313.5,293C 313.501,305.186 314.168,317.019 315.5,328.5C 316.833,328.5 318.167,328.5 319.5,328.5C 322.869,329.559 324.536,331.892 324.5,335.5C 293.833,335.5 263.167,335.5 232.5,335.5C 232.79,330.543 235.457,327.877 240.5,327.5C 240.168,295.996 240.502,264.662 241.5,233.5 Z"/></g>
<g><path style="opacity:1" fill="#d1b4b1" d="M 303.5,322.5 C 304.829,326.684 307.829,328.351 312.5,327.5C 307.025,328.489 301.358,328.822 295.5,328.5C 295.5,327.5 295.5,326.5 295.5,325.5C 298.167,325.5 300.833,325.5 303.5,325.5C 303.5,324.5 303.5,323.5 303.5,322.5 Z"/></g>
<g><path style="opacity:1" fill="#af5556" d="M 295.5,325.5 C 295.5,326.5 295.5,327.5 295.5,328.5C 292.167,328.5 288.833,328.5 285.5,328.5C 285.5,327.5 285.5,326.5 285.5,325.5C 288.833,325.5 292.167,325.5 295.5,325.5 Z"/></g>
<g><path style="opacity:1" fill="#fdfcfc" d="M 296.5,296.5 C 295.197,298.142 293.864,299.809 292.5,301.5C 291.213,302.871 290.547,304.705 290.5,307C 291.1,312.033 292.433,316.867 294.5,321.5C 290.774,321.177 287.107,321.511 283.5,322.5C 287.445,323.491 291.445,323.824 295.5,323.5C 295.5,324.167 295.5,324.833 295.5,325.5C 292.167,325.5 288.833,325.5 285.5,325.5C 285.5,326.5 285.5,327.5 285.5,328.5C 279.612,329.012 273.945,328.345 268.5,326.5C 268.318,320.641 268.984,314.975 270.5,309.5C 270.495,307.304 270.162,305.304 269.5,303.5C 267.216,303.025 265.216,302.025 263.5,300.5C 262.418,295.927 263.251,291.594 266,287.5C 266.671,286.748 267.504,286.414 268.5,286.5C 274.167,290.5 279.833,290.5 285.5,286.5C 286.738,285.588 288.072,285.421 289.5,286C 293.301,288.614 295.634,292.114 296.5,296.5 Z"/></g>
<g><path style="opacity:1" fill="#fdca9b" d="M 244.5,257.5 C 248.838,257.622 249.172,257.955 245.5,258.5C 245.5,259.833 245.5,261.167 245.5,262.5C 247.124,262.36 248.29,263.027 249,264.5C 258.605,263.18 268.438,262.513 278.5,262.5C 288.66,262.525 298.66,263.191 308.5,264.5C 309.5,263 310.5,261.5 311.5,260C 310.944,258.989 310.278,258.156 309.5,257.5C 310.5,257.5 311.5,257.5 312.5,257.5C 312.5,280.833 312.5,304.167 312.5,327.5C 307.829,328.351 304.829,326.684 303.5,322.5C 300.713,321.523 297.713,321.19 294.5,321.5C 292.433,316.867 291.1,312.033 290.5,307C 290.547,304.705 291.213,302.871 292.5,301.5C 294.865,303.86 297.532,305.86 300.5,307.5C 301.478,307.023 302.311,306.357 303,305.5C 304.836,299.107 306.67,292.774 308.5,286.5C 307.137,285.107 306.304,283.441 306,281.5C 305.244,288.011 303.078,294.011 299.5,299.5C 298.712,298.23 297.712,297.23 296.5,296.5C 295.634,292.114 293.301,288.614 289.5,286C 288.072,285.421 286.738,285.588 285.5,286.5C 284.152,285.399 282.652,284.399 281,283.5C 280.316,282.216 280.483,281.049 281.5,280C 280.692,279.692 280.025,279.192 279.5,278.5C 280.651,277.269 281.817,277.269 283,278.5C 283.494,276.866 283.66,275.199 283.5,273.5C 286.134,271.46 286.134,269.293 283.5,267C 274.288,261.644 268.955,264.144 267.5,274.5C 267.487,278.501 269.487,280.168 273.5,279.5C 274.426,283.886 272.759,286.22 268.5,286.5C 267.504,286.414 266.671,286.748 266,287.5C 263.251,291.594 262.418,295.927 263.5,300.5C 261.675,308.458 259.508,316.458 257,324.5C 248.186,326.828 248.352,327.828 257.5,327.5C 261.167,327.5 264.833,327.5 268.5,327.5C 260.684,328.492 252.684,328.826 244.5,328.5C 244.5,304.833 244.5,281.167 244.5,257.5 Z"/></g>
<g><path style="opacity:1" fill="#5c93ee" d="M 303.5,322.5 C 303.5,323.5 303.5,324.5 303.5,325.5C 300.833,325.5 298.167,325.5 295.5,325.5C 295.5,324.833 295.5,324.167 295.5,323.5C 297.948,322.527 300.615,322.194 303.5,322.5 Z"/></g>
<g><path style="opacity:1" fill="#b1bbd2" d="M 294.5,321.5 C 297.713,321.19 300.713,321.523 303.5,322.5C 300.615,322.194 297.948,322.527 295.5,323.5C 291.445,323.824 287.445,323.491 283.5,322.5C 287.107,321.511 290.774,321.177 294.5,321.5 Z"/></g>
<g><path style="opacity:1" fill="#fdcb9b" d="M 269.5,303.5 C 270.162,305.304 270.495,307.304 270.5,309.5C 268.984,314.975 268.318,320.641 268.5,326.5C 268.5,326.833 268.5,327.167 268.5,327.5C 264.833,327.5 261.167,327.5 257.5,327.5C 263.085,320.33 267.085,312.33 269.5,303.5 Z"/></g>
<g><path style="opacity:1" fill="#feb17c" d="M 263.5,300.5 C 265.216,302.025 267.216,303.025 269.5,303.5C 267.085,312.33 263.085,320.33 257.5,327.5C 248.352,327.828 248.186,326.828 257,324.5C 259.508,316.458 261.675,308.458 263.5,300.5 Z"/></g>
<g><path style="opacity:1" fill="#feb17c" d="M 292.5,301.5 C 293.864,299.809 295.197,298.142 296.5,296.5C 297.712,297.23 298.712,298.23 299.5,299.5C 303.078,294.011 305.244,288.011 306,281.5C 306.304,283.441 307.137,285.107 308.5,286.5C 306.67,292.774 304.836,299.107 303,305.5C 302.311,306.357 301.478,307.023 300.5,307.5C 297.532,305.86 294.865,303.86 292.5,301.5 Z"/></g>
<g><path style="opacity:1" fill="#fbb07b" d="M 283.5,273.5 C 283.66,275.199 283.494,276.866 283,278.5C 281.817,277.269 280.651,277.269 279.5,278.5C 280.025,279.192 280.692,279.692 281.5,280C 280.483,281.049 280.316,282.216 281,283.5C 282.652,284.399 284.152,285.399 285.5,286.5C 279.833,290.5 274.167,290.5 268.5,286.5C 272.759,286.22 274.426,283.886 273.5,279.5C 273.954,277.741 273.954,275.741 273.5,273.5C 274.822,273.33 275.989,273.663 277,274.5C 278.61,272.269 280.443,270.269 282.5,268.5C 283.452,270.045 283.785,271.712 283.5,273.5 Z"/></g>
<g><path style="opacity:1" fill="#2c3762" d="M 283.5,273.5 C 283.785,271.712 283.452,270.045 282.5,268.5C 280.443,270.269 278.61,272.269 277,274.5C 275.989,273.663 274.822,273.33 273.5,273.5C 273.954,275.741 273.954,277.741 273.5,279.5C 269.487,280.168 267.487,278.501 267.5,274.5C 268.955,264.144 274.288,261.644 283.5,267C 286.134,269.293 286.134,271.46 283.5,273.5 Z"/></g>
<g><path style="opacity:1" fill="#faf5f0" d="M 311.5,253.5 C 311.473,255.199 310.806,256.533 309.5,257.5C 310.278,258.156 310.944,258.989 311.5,260C 310.5,261.5 309.5,263 308.5,264.5C 298.66,263.191 288.66,262.525 278.5,262.5C 268.438,262.513 258.605,263.18 249,264.5C 248.29,263.027 247.124,262.36 245.5,262.5C 245.5,261.167 245.5,259.833 245.5,258.5C 249.172,257.955 248.838,257.622 244.5,257.5C 245.234,256.292 245.567,254.959 245.5,253.5C 249.5,252.833 249.5,252.167 245.5,251.5C 245.5,250.5 245.5,249.5 245.5,248.5C 249.5,247.833 249.5,247.167 245.5,246.5C 245.5,245.5 245.5,244.5 245.5,243.5C 267.5,243.5 289.5,243.5 311.5,243.5C 311.52,245.143 310.853,246.476 309.5,247.5C 312.167,249.167 312.167,250.833 309.5,252.5C 309.957,253.298 310.624,253.631 311.5,253.5 Z"/></g>
<g><path style="opacity:1" fill="#fed2a8" d="M 312.5,236.5 C 312.822,242.358 312.489,248.025 311.5,253.5C 310.624,253.631 309.957,253.298 309.5,252.5C 312.167,250.833 312.167,249.167 309.5,247.5C 310.853,246.476 311.52,245.143 311.5,243.5C 289.5,243.5 267.5,243.5 245.5,243.5C 245.5,244.5 245.5,245.5 245.5,246.5C 249.5,247.167 249.5,247.833 245.5,248.5C 245.5,249.5 245.5,250.5 245.5,251.5C 249.5,252.167 249.5,252.833 245.5,253.5C 244.511,248.025 244.178,242.358 244.5,236.5C 267.167,236.5 289.833,236.5 312.5,236.5 Z"/></g>
<g><path style="opacity:1" fill="#ffd1a8" d="M 249.5,251.5 C 268.845,251.167 288.178,251.5 307.5,252.5C 297.833,252.833 288.167,253.167 278.5,253.5C 268.476,253.499 258.809,252.832 249.5,251.5 Z"/></g>
<g><path style="opacity:1" fill="#ffcda0" d="M 249.5,246.5 C 268.845,246.167 288.178,246.5 307.5,247.5C 297.833,247.833 288.167,248.167 278.5,248.5C 268.476,248.499 258.809,247.832 249.5,246.5 Z"/></g>
<g><path style="opacity:1" fill="#fffcf9" d="M 245.5,238.5 C 267.5,238.5 289.5,238.5 311.5,238.5C 311.5,239.5 311.5,240.5 311.5,241.5C 289.5,241.5 267.5,241.5 245.5,241.5C 245.5,240.5 245.5,239.5 245.5,238.5 Z"/></g>
<g><path style="opacity:1" fill="#93b8ef" d="M 355.5,233.5 C 355.167,265.174 355.5,296.84 356.5,328.5C 357.814,304.15 357.814,279.816 356.5,255.5C 357.091,249.015 357.757,242.681 358.5,236.5C 381.372,235.824 404.372,235.157 427.5,234.5C 427.833,234.833 428.167,235.167 428.5,235.5C 428.041,254.576 427.708,273.743 427.5,293C 427.501,305.186 428.168,317.019 429.5,328.5C 430.833,328.5 432.167,328.5 433.5,328.5C 436.869,329.559 438.536,331.892 438.5,335.5C 407.833,335.5 377.167,335.5 346.5,335.5C 346.79,330.543 349.457,327.877 354.5,327.5C 354.168,295.996 354.502,264.662 355.5,233.5 Z"/></g>
<g><path style="opacity:1" fill="#214183" d="M 416.5,322.5 C 417.167,322.5 417.5,322.833 417.5,323.5C 417.5,325.167 417.5,326.833 417.5,328.5C 409.833,328.5 402.167,328.5 394.5,328.5C 394.5,328.167 394.5,327.833 394.5,327.5C 394.232,325.901 394.566,324.568 395.5,323.5C 402.592,325.036 409.592,324.703 416.5,322.5 Z"/></g>
<g><path style="opacity:1" fill="#f8dcbd" d="M 394.5,316.5 C 394.298,318.95 394.631,321.283 395.5,323.5C 394.566,324.568 394.232,325.901 394.5,327.5C 387.167,327.5 379.833,327.5 372.5,327.5C 372.5,324.833 372.5,322.167 372.5,319.5C 377.363,319.819 382.03,319.486 386.5,318.5C 389.003,317.629 391.67,316.963 394.5,316.5 Z"/></g>
<g><path style="opacity:1" fill="#254289" d="M 370.5,311.5 C 375.5,311.5 380.5,311.5 385.5,311.5C 386.338,311.842 386.672,312.508 386.5,313.5C 377.181,315.826 377.181,317.493 386.5,318.5C 382.03,319.486 377.363,319.819 372.5,319.5C 371.761,319.631 371.094,319.464 370.5,319C 371.833,318.667 373.167,318.333 374.5,318C 372.077,316.429 370.744,314.263 370.5,311.5 Z"/></g>
<g><path style="opacity:1" fill="#f9dec0" d="M 395.5,301.5 C 395.5,304.167 395.5,306.833 395.5,309.5C 393.684,311.137 391.684,312.637 389.5,314C 388.251,314.74 387.251,314.573 386.5,313.5C 386.672,312.508 386.338,311.842 385.5,311.5C 385.5,311.167 385.5,310.833 385.5,310.5C 386.167,310.5 386.833,310.5 387.5,310.5C 389.39,310.703 390.89,310.037 392,308.5C 392.728,305.813 393.895,303.48 395.5,301.5 Z"/></g>
<g><path style="opacity:1" fill="#f89645" d="M 398.5,284.5 C 399.5,284.5 400.5,284.5 401.5,284.5C 401.085,286.948 402.085,288.281 404.5,288.5C 406.871,287.653 408.871,286.32 410.5,284.5C 416.677,285.024 419.01,288.357 417.5,294.5C 415.288,297.966 413.955,301.799 413.5,306C 414.424,310.773 415.757,315.44 417.5,320C 417.257,320.902 416.923,321.735 416.5,322.5C 409.592,324.703 402.592,325.036 395.5,323.5C 394.631,321.283 394.298,318.95 394.5,316.5C 403.429,314.076 409.763,308.576 413.5,300C 410.443,299.744 407.443,299.244 404.5,298.5C 402.747,301.005 401.247,303.671 400,306.5C 398.871,308.141 397.371,309.141 395.5,309.5C 395.5,306.833 395.5,304.167 395.5,301.5C 394.488,298.748 393.488,296.081 392.5,293.5C 392.5,292.833 392.167,292.5 391.5,292.5C 391.703,287.964 394.036,285.298 398.5,284.5 Z"/></g>
<g><path style="opacity:1" fill="#fdb27e" d="M 394.5,316.5 C 391.67,316.963 389.003,317.629 386.5,318.5C 377.181,317.493 377.181,315.826 386.5,313.5C 387.251,314.573 388.251,314.74 389.5,314C 391.684,312.637 393.684,311.137 395.5,309.5C 397.371,309.141 398.871,308.141 400,306.5C 401.247,303.671 402.747,301.005 404.5,298.5C 407.443,299.244 410.443,299.744 413.5,300C 409.763,308.576 403.429,314.076 394.5,316.5 Z"/></g>
<g><path style="opacity:1" fill="#a3cf9a" d="M 368.5,297.5 C 376.941,299.468 377.608,302.802 370.5,307.5C 368.339,307.174 366.506,306.174 365,304.5C 364.544,303.256 365.044,302.423 366.5,302C 363.553,301.888 362.22,300.388 362.5,297.5C 365.325,297.081 367.491,298.081 369,300.5C 369.47,299.423 369.303,298.423 368.5,297.5 Z"/></g>
<g><path style="opacity:1" fill="#fbfaf9" d="M 426.5,289.5 C 426.5,302.5 426.5,315.5 426.5,328.5C 423.615,328.806 420.948,328.473 418.5,327.5C 420.753,322.221 422.587,316.554 424,310.5C 424.675,303.331 425.509,296.331 426.5,289.5 Z"/></g>
<g><path style="opacity:1" fill="#f6dbbd" d="M 390.5,257.5 C 397.167,257.5 403.833,257.5 410.5,257.5C 414.849,262.344 420.182,265.678 426.5,267.5C 426.5,274.833 426.5,282.167 426.5,289.5C 425.509,296.331 424.675,303.331 424,310.5C 422.587,316.554 420.753,322.221 418.5,327.5C 418.768,325.901 418.434,324.568 417.5,323.5C 417.5,322.833 417.167,322.5 416.5,322.5C 416.923,321.735 417.257,320.902 417.5,320C 415.757,315.44 414.424,310.773 413.5,306C 413.955,301.799 415.288,297.966 417.5,294.5C 423.961,288.77 424.127,282.77 418,276.5C 418.6,266.098 413.766,261.598 403.5,263C 399.808,265.55 398.142,269.05 398.5,273.5C 399.773,275.713 400.773,278.046 401.5,280.5C 400.167,281.167 399.167,282.167 398.5,283.5C 398.5,283.833 398.5,284.167 398.5,284.5C 394.036,285.298 391.703,287.964 391.5,292.5C 390.127,292.343 388.793,292.51 387.5,293C 386.924,295.268 385.59,296.268 383.5,296C 386.433,293.649 386.099,292.649 382.5,293C 381.036,294.864 380.036,297.031 379.5,299.5C 378.94,294.738 377.607,294.405 375.5,298.5C 377.758,302.016 379.758,305.682 381.5,309.5C 382.736,310.246 384.07,310.579 385.5,310.5C 385.5,310.833 385.5,311.167 385.5,311.5C 380.5,311.5 375.5,311.5 370.5,311.5C 370.5,310.167 370.5,308.833 370.5,307.5C 377.608,302.802 376.941,299.468 368.5,297.5C 368.212,294.134 368.046,290.8 368,287.5C 377.675,279.157 385.175,269.157 390.5,257.5 Z"/></g>
<g><path style="opacity:1" fill="#9eca95" d="M 391.5,292.5 C 392.167,292.5 392.5,292.833 392.5,293.5C 392.5,294.833 392.5,296.167 392.5,297.5C 388.044,297.896 387.71,298.896 391.5,300.5C 390.833,301.5 390.167,302.5 389.5,303.5C 390.645,304.891 390.645,306.224 389.5,307.5C 388.391,306.41 387.391,306.41 386.5,307.5C 388.435,308.213 388.768,309.213 387.5,310.5C 386.833,310.5 386.167,310.5 385.5,310.5C 384.07,310.579 382.736,310.246 381.5,309.5C 379.758,305.682 377.758,302.016 375.5,298.5C 377.607,294.405 378.94,294.738 379.5,299.5C 380.036,297.031 381.036,294.864 382.5,293C 386.099,292.649 386.433,293.649 383.5,296C 385.59,296.268 386.924,295.268 387.5,293C 388.793,292.51 390.127,292.343 391.5,292.5 Z"/></g>
<g><path style="opacity:1" fill="#f5b27d" d="M 392.5,293.5 C 393.488,296.081 394.488,298.748 395.5,301.5C 393.895,303.48 392.728,305.813 392,308.5C 390.89,310.037 389.39,310.703 387.5,310.5C 388.768,309.213 388.435,308.213 386.5,307.5C 387.391,306.41 388.391,306.41 389.5,307.5C 390.645,306.224 390.645,304.891 389.5,303.5C 390.167,302.5 390.833,301.5 391.5,300.5C 387.71,298.896 388.044,297.896 392.5,297.5C 392.5,296.167 392.5,294.833 392.5,293.5 Z"/></g>
<g><path style="opacity:1" fill="#22285e" d="M 401.5,280.5 C 403.028,280.517 403.528,281.184 403,282.5C 401.644,283.38 400.144,283.714 398.5,283.5C 399.167,282.167 400.167,281.167 401.5,280.5 Z"/></g>
<g><path style="opacity:1" fill="#f8b17c" d="M 410.5,284.5 C 408.871,286.32 406.871,287.653 404.5,288.5C 402.085,288.281 401.085,286.948 401.5,284.5C 400.5,284.5 399.5,284.5 398.5,284.5C 398.5,284.167 398.5,283.833 398.5,283.5C 400.144,283.714 401.644,283.38 403,282.5C 403.528,281.184 403.028,280.517 401.5,280.5C 400.773,278.046 399.773,275.713 398.5,273.5C 400.083,272.064 401.583,270.398 403,268.5C 408.646,272.26 411.146,277.594 410.5,284.5 Z"/></g>
<g><path style="opacity:1" fill="#223461" d="M 417.5,294.5 C 419.01,288.357 416.677,285.024 410.5,284.5C 411.146,277.594 408.646,272.26 403,268.5C 401.583,270.398 400.083,272.064 398.5,273.5C 398.142,269.05 399.808,265.55 403.5,263C 413.766,261.598 418.6,266.098 418,276.5C 424.127,282.77 423.961,288.77 417.5,294.5 Z"/></g>
<g><path style="opacity:1" fill="#fefdfd" d="M 410.5,257.5 C 415.833,257.5 421.167,257.5 426.5,257.5C 426.5,260.833 426.5,264.167 426.5,267.5C 420.182,265.678 414.849,262.344 410.5,257.5 Z"/></g>
<g><path style="opacity:1" fill="#fcfcfc" d="M 390.5,257.5 C 385.175,269.157 377.675,279.157 368,287.5C 368.046,290.8 368.212,294.134 368.5,297.5C 369.303,298.423 369.47,299.423 369,300.5C 367.491,298.081 365.325,297.081 362.5,297.5C 362.22,300.388 363.553,301.888 366.5,302C 365.044,302.423 364.544,303.256 365,304.5C 366.506,306.174 368.339,307.174 370.5,307.5C 370.5,308.833 370.5,310.167 370.5,311.5C 370.744,314.263 372.077,316.429 374.5,318C 373.167,318.333 371.833,318.667 370.5,319C 371.094,319.464 371.761,319.631 372.5,319.5C 372.5,322.167 372.5,324.833 372.5,327.5C 379.833,327.5 387.167,327.5 394.5,327.5C 394.5,327.833 394.5,328.167 394.5,328.5C 382.5,328.5 370.5,328.5 358.5,328.5C 358.5,304.833 358.5,281.167 358.5,257.5C 369.167,257.5 379.833,257.5 390.5,257.5 Z"/></g>
<g><path style="opacity:1" fill="#f7dcbf" d="M 395.5,236.5 C 396.167,236.5 396.833,236.5 397.5,236.5C 399.366,242.564 402.033,248.231 405.5,253.5C 401.167,253.5 396.833,253.5 392.5,253.5C 393.608,247.854 394.608,242.188 395.5,236.5 Z"/></g>
<g><path style="opacity:1" fill="#fdfdfe" d="M 397.5,236.5 C 407.167,236.5 416.833,236.5 426.5,236.5C 426.5,242.167 426.5,247.833 426.5,253.5C 419.5,253.5 412.5,253.5 405.5,253.5C 402.033,248.231 399.366,242.564 397.5,236.5 Z"/></g>
<g><path style="opacity:1" fill="#fdfdfe" d="M 358.5,236.5 C 370.833,236.5 383.167,236.5 395.5,236.5C 394.608,242.188 393.608,247.854 392.5,253.5C 381.167,253.5 369.833,253.5 358.5,253.5C 358.5,247.833 358.5,242.167 358.5,236.5 Z"/></g>
<g><path style="opacity:1" fill="#a8d29f" d="M 202.5,356.5 C 202.5,356.833 202.5,357.167 202.5,357.5C 205.868,360.493 210.202,362.993 215.5,365C 226.06,367.245 236.394,370.245 246.5,374C 253.463,377.792 258.463,383.292 261.5,390.5C 203.238,391.496 144.905,391.829 86.5,391.5C 87.2197,383.268 91.5531,377.768 99.5,375C 113.942,376.094 127.609,373.427 140.5,367C 152.87,353.398 168.204,348.398 186.5,352C 191.247,353.248 195.747,355.082 200,357.5C 200.671,356.748 201.504,356.414 202.5,356.5 Z"/></g>
<g><path style="opacity:1" fill="#aacaf9" d="M 511.5,353.5 C 511.62,354.586 512.287,355.253 513.5,355.5C 514.416,355.457 515.083,355.124 515.5,354.5C 515.833,354.5 516.167,354.5 516.5,354.5C 517.209,355.404 518.209,355.737 519.5,355.5C 519.5,359.5 519.5,363.5 519.5,367.5C 518.507,375.984 518.174,384.651 518.5,393.5C 515.167,393.5 511.833,393.5 508.5,393.5C 508.5,393.167 508.5,392.833 508.5,392.5C 508.5,382.5 508.5,372.5 508.5,362.5C 507.925,358.845 508.925,355.845 511.5,353.5 Z"/></g>
<g><path style="opacity:1" fill="#75a1df" d="M 202.5,357.5 C 289.833,357.5 377.167,357.5 464.5,357.5C 464.833,357.5 465.167,357.5 465.5,357.5C 466.5,357.5 467.5,357.5 468.5,357.5C 468.5,369.167 468.5,380.833 468.5,392.5C 481.833,392.5 495.167,392.5 508.5,392.5C 508.5,392.833 508.5,393.167 508.5,393.5C 495.167,393.5 481.833,393.5 468.5,393.5C 312.666,393.833 156.999,393.5 1.5,392.5C 22.5,392.5 43.5,392.5 64.5,392.5C 130.503,392.833 196.503,392.5 262.5,391.5C 262.376,390.893 262.043,390.56 261.5,390.5C 258.463,383.292 253.463,377.792 246.5,374C 236.394,370.245 226.06,367.245 215.5,365C 210.202,362.993 205.868,360.493 202.5,357.5 Z"/></g>
<g><path style="opacity:0.999" fill="#83b37b" d="M 519.5,367.5 C 530.804,372.121 535.804,380.454 534.5,392.5C 529.36,393.488 524.026,393.821 518.5,393.5C 518.174,384.651 518.507,375.984 519.5,367.5 Z"/></g>
<g><path style="opacity:1" fill="#8fbe87" d="M 563.5,392.5 C 558.5,392.5 553.5,392.5 548.5,392.5C 549.183,390.824 550.517,390.157 552.5,390.5C 552.281,384.52 554.281,379.52 558.5,375.5C 560.167,375.833 561.167,376.833 561.5,378.5C 560.612,380.155 560.112,381.822 560,383.5C 562.044,382.228 563.878,382.561 565.5,384.5C 563.644,387.19 561.311,389.356 558.5,391C 560.382,391.198 562.048,391.698 563.5,392.5 Z"/></g>
<g><path style="opacity:1" fill="#d9e7e8" d="M 557.5,387.5 C 557.467,390.097 556.467,391.097 554.5,390.5C 554.879,388.787 555.879,387.787 557.5,387.5 Z"/></g>
<g><path style="opacity:1" fill="#02001e" d="M 0.5,392.5 C 0.833333,392.5 1.16667,392.5 1.5,392.5C 156.999,393.5 312.666,393.833 468.5,393.5C 468.5,393.833 468.5,394.167 468.5,394.5C 312.163,395.165 156.163,394.499 0.5,392.5 Z"/></g>
<g><path style="opacity:1" fill="#161d3d" d="M 534.5,392.5 C 539.167,392.5 543.833,392.5 548.5,392.5C 553.5,392.5 558.5,392.5 563.5,392.5C 579.167,392.5 594.833,392.5 610.5,392.5C 610.5,393.167 610.5,393.833 610.5,394.5C 563.167,394.5 515.833,394.5 468.5,394.5C 468.5,394.167 468.5,393.833 468.5,393.5C 481.833,393.5 495.167,393.5 508.5,393.5C 511.833,393.5 515.167,393.5 518.5,393.5C 524.026,393.821 529.36,393.488 534.5,392.5 Z"/></g>
<g><path style="opacity:0.463" fill="#a6adba" d="M -0.5,392.5 C -0.166667,392.5 0.166667,392.5 0.5,392.5C 156.163,394.499 312.163,395.165 468.5,394.5C 515.833,394.5 563.167,394.5 610.5,394.5C 610.5,394.833 610.5,395.167 610.5,395.5C 406.833,395.5 203.167,395.5 -0.5,395.5C -0.5,394.5 -0.5,393.5 -0.5,392.5 Z"/></g>
</svg>
