<?xml version="1.0" encoding="UTF-8" standalone="no"?>
<!-- Created with Inkscape (http://www.inkscape.org/) -->

<svg
   width="251"
   height="26"
   viewBox="0 0 66.410415 6.8791666"
   version="1.1"
   id="svg5"
   xml:space="preserve"
   sodipodi:docname="rentalcrawler_logo.svg"
   inkscape:version="1.2.1 (9c6d41e410, 2022-07-14)"
   inkscape:export-filename="rentalcrawler_logo.png"
   inkscape:export-xdpi="96"
   inkscape:export-ydpi="96"
   xmlns:inkscape="http://www.inkscape.org/namespaces/inkscape"
   xmlns:sodipodi="http://sodipodi.sourceforge.net/DTD/sodipodi-0.dtd"
   xmlns="http://www.w3.org/2000/svg"
   xmlns:svg="http://www.w3.org/2000/svg"><sodipodi:namedview
     id="namedview7"
     pagecolor="#ffffff"
     bordercolor="#666666"
     borderopacity="1.0"
     inkscape:showpageshadow="2"
     inkscape:pageopacity="0.0"
     inkscape:pagecheckerboard="0"
     inkscape:deskcolor="#d1d1d1"
     inkscape:document-units="mm"
     showgrid="false"
     inkscape:zoom="4.0000001"
     inkscape:cx="134.75"
     inkscape:cy="50.999999"
     inkscape:window-width="1920"
     inkscape:window-height="1017"
     inkscape:window-x="-8"
     inkscape:window-y="-8"
     inkscape:window-maximized="1"
     inkscape:current-layer="text23169" /><defs
     id="defs2"><inkscape:path-effect
       effect="powerclip"
       id="path-effect1690"
       is_visible="true"
       lpeversion="1"
       inverse="true"
       flatten="false"
       hide_clip="false"
       message="Use fill-rule evenodd on &lt;b&gt;fill and stroke&lt;/b&gt; dialog if no flatten result after convert clip to paths." /><clipPath
       clipPathUnits="userSpaceOnUse"
       id="clipPath1662"><g
         id="g1688"
         style="display:none"><rect
           style="fill:#ffffff;fill-opacity:1;stroke:none;stroke-width:0.25149;stroke-linecap:round;stroke-linejoin:round"
           id="rect1664"
           width="0.83150697"
           height="0.81695604"
           x="37.67255"
           y="79.449333"
           ry="0"
           rx="0" /><rect
           style="fill:#ffffff;fill-opacity:1;stroke:none;stroke-width:0.25149;stroke-linecap:round;stroke-linejoin:round"
           id="rect1666"
           width="0.83150697"
           height="0.81695604"
           x="39.20396"
           y="79.449333"
           ry="0"
           rx="0" /><rect
           style="fill:#ffffff;fill-opacity:1;stroke:none;stroke-width:0.25149;stroke-linecap:round;stroke-linejoin:round"
           id="rect1668"
           width="0.83150697"
           height="0.81695604"
           x="40.735367"
           y="79.449333"
           ry="0"
           rx="0" /><rect
           style="fill:#ffffff;fill-opacity:1;stroke:none;stroke-width:0.25149;stroke-linecap:round;stroke-linejoin:round"
           id="rect1670"
           width="0.83150697"
           height="0.81695604"
           x="40.735367"
           y="77.977745"
           ry="0"
           rx="0" /><rect
           style="fill:#ffffff;fill-opacity:1;stroke:none;stroke-width:0.25149;stroke-linecap:round;stroke-linejoin:round"
           id="rect1672"
           width="0.83150697"
           height="0.81695604"
           x="39.20396"
           y="77.977745"
           ry="0"
           rx="0" /><rect
           style="fill:#ffffff;fill-opacity:1;stroke:none;stroke-width:0.25149;stroke-linecap:round;stroke-linejoin:round"
           id="rect1674"
           width="0.83150697"
           height="0.81695604"
           x="37.67255"
           y="80.896996"
           ry="0"
           rx="0" /><rect
           style="fill:#ffffff;fill-opacity:1;stroke:none;stroke-width:0.25149;stroke-linecap:round;stroke-linejoin:round"
           id="rect1676"
           width="0.83150697"
           height="0.81695604"
           x="39.20396"
           y="80.896996"
           ry="0"
           rx="0" /><rect
           style="fill:#ffffff;fill-opacity:1;stroke:none;stroke-width:0.25149;stroke-linecap:round;stroke-linejoin:round"
           id="rect1678"
           width="0.83150697"
           height="0.81695604"
           x="40.735367"
           y="80.896996"
           ry="0"
           rx="0" /><rect
           style="fill:#ffffff;fill-opacity:1;stroke:none;stroke-width:0.25149;stroke-linecap:round;stroke-linejoin:round"
           id="rect1680"
           width="0.83150697"
           height="0.81695604"
           x="42.260792"
           y="80.896996"
           ry="0"
           rx="0" /><rect
           style="fill:#ffffff;fill-opacity:1;stroke:none;stroke-width:0.25149;stroke-linecap:round;stroke-linejoin:round"
           id="rect1682"
           width="0.83150697"
           height="0.81695604"
           x="37.67255"
           y="82.24894"
           ry="0"
           rx="0" /><rect
           style="fill:#ffffff;fill-opacity:1;stroke:none;stroke-width:0.25149;stroke-linecap:round;stroke-linejoin:round"
           id="rect1684"
           width="0.83150697"
           height="0.81695604"
           x="42.260792"
           y="82.24894"
           ry="0"
           rx="0" /><rect
           style="fill:#ffffff;fill-opacity:1;stroke:none;stroke-width:0.404405;stroke-linecap:round;stroke-linejoin:round"
           id="rect1686"
           width="1.158524"
           height="1.5161899"
           x="39.719509"
           y="82.459412"
           ry="0"
           rx="0" /></g><path
         id="lpe_path-effect1690"
         class="powerclip"
         d="M 31.624842,72.184967 H 49.075779 V 88.968681 H 31.624842 Z m 6.047708,7.264366 v 0.816956 h 0.831507 v -0.816956 z m 1.53141,0 v 0.816956 h 0.831507 v -0.816956 z m 1.531407,0 v 0.816956 h 0.831507 v -0.816956 z m 0,-1.471588 v 0.816956 h 0.831507 v -0.816956 z m -1.531407,0 v 0.816956 h 0.831507 v -0.816956 z m -1.53141,2.919251 v 0.816956 h 0.831507 v -0.816956 z m 1.53141,0 v 0.816956 h 0.831507 v -0.816956 z m 1.531407,0 v 0.816956 h 0.831507 v -0.816956 z m 1.525425,0 v 0.816956 h 0.831507 V 80.896996 Z M 37.67255,82.24894 v 0.816956 h 0.831507 V 82.24894 Z m 4.588242,0 v 0.816956 h 0.831507 V 82.24894 Z m -2.541283,0.210472 v 1.51619 h 1.158524 v -1.51619 z" /></clipPath></defs><g
     inkscape:label="Layer 1"
     inkscape:groupmode="layer"
     id="layer1"><g
       id="g1703"
       inkscape:export-filename="RentalCrawler_logov2.png"
       inkscape:export-xdpi="96"
       inkscape:export-ydpi="96"
       transform="translate(-35.782943,-77.184967)"><g
         id="g1632"
         clip-path="url(#clipPath1662)"
         inkscape:path-effect="#path-effect1690"
         transform="translate(-0.84189899)"><g
           id="g3745"
           transform="matrix(0.46195894,0,0,0.46195894,24.818962,44.34946)"><path
             style="fill:#e63946;fill-opacity:1;stroke:none;stroke-width:0.679984;stroke-linecap:round;stroke-linejoin:round"
             id="rect419"
             width="7.0911984"
             height="11.484962"
             x="25.556124"
             y="74.276833"
             ry="1.5572828"
             d="m 27.113407,74.276833 h 3.976632 c 0.862735,0 1.557283,0.694548 1.557283,1.557282 v 8.370397 c 0,0.862735 -0.694548,1.557283 -1.557283,1.557283 h -3.976632 c -0.862735,0 -1.557283,-0.694548 -1.557283,-1.557283 v -8.370397 c 0,-0.862734 0.694548,-1.557282 1.557283,-1.557282 z"
             sodipodi:type="rect" /><path
             style="fill:#e63946;fill-opacity:1;stroke:none;stroke-width:0.768843;stroke-linecap:round;stroke-linejoin:round"
             id="rect1476"
             width="9.0656109"
             height="11.484962"
             x="29.143436"
             y="71.078842"
             ry="1.5572828"
             d="m 30.700719,71.078842 h 5.951046 c 0.862734,0 1.557282,0.694548 1.557282,1.557283 v 8.370397 c 0,0.862734 -0.694548,1.557283 -1.557282,1.557283 h -5.951046 c -0.862734,0 -1.557283,-0.694549 -1.557283,-1.557283 v -8.370397 c 0,-0.862735 0.694549,-1.557283 1.557283,-1.557283 z"
             sodipodi:type="rect" /><path
             style="fill:#e63946;fill-opacity:1;stroke:none;stroke-width:0.604474;stroke-linecap:round;stroke-linejoin:round"
             id="rect1478"
             width="7.5639453"
             height="8.5085859"
             x="34.121181"
             y="77.252808"
             ry="1.1537064"
             d="m 35.274888,77.252808 h 5.256532 c 0.639154,0 1.153707,0.514553 1.153707,1.153706 v 6.201173 c 0,0.639153 -0.514553,1.153707 -1.153707,1.153707 h -5.256532 c -0.639153,0 -1.153707,-0.514554 -1.153707,-1.153707 v -6.201173 c 0,-0.639153 0.514554,-1.153706 1.153707,-1.153706 z"
             sodipodi:type="rect" /></g><path
           style="fill:#e63946;fill-opacity:1;stroke:none;stroke-width:0.327575;stroke-linecap:round;stroke-linejoin:round"
           id="rect3777"
           width="0.77584028"
           height="1.4855118"
           x="39.123112"
           y="82.48317"
           ry="0"
           rx="0"
           d="m 39.123112,82.48317 h 0.77584 v 1.485511 h -0.77584 z"
           sodipodi:type="rect" /><path
           style="fill:#e63946;fill-opacity:1;stroke:none;stroke-width:0.327575;stroke-linecap:round;stroke-linejoin:round"
           id="rect3779"
           width="0.77584028"
           height="1.4855118"
           x="40.56673"
           y="82.48317"
           ry="0"
           rx="0"
           d="m 40.56673,82.48317 h 0.775841 v 1.485511 H 40.56673 Z"
           sodipodi:type="rect" /></g><g
         aria-label="Rental Crawler"
         id="text23169"
         style="font-weight:bold;font-size:10.5833px;line-height:1.25;font-family:Nunito;-inkscape-font-specification:'Nunito, Bold';letter-spacing:0.529167px;word-spacing:0px;fill:#e63946;stroke-width:0.264583"><path
           d="m 46.812758,83.123812 q -0.218722,0 -0.338666,-0.119944 -0.112889,-0.127001 -0.112889,-0.345723 v -4.106336 q 0,-0.225778 0.119944,-0.338667 0.119945,-0.119944 0.338667,-0.119944 h 1.70039 q 0.818445,0 1.262945,0.395111 0.444501,0.388056 0.444501,1.093612 0,0.458611 -0.204612,0.790223 -0.197555,0.331611 -0.578556,0.508 -0.381,0.176389 -0.924278,0.176389 l 0.0635,-0.105833 h 0.232834 q 0.289278,0 0.500944,0.141111 0.218723,0.141111 0.381001,0.4445 l 0.529167,0.980723 q 0.08467,0.148167 0.07761,0.289278 -0.0071,0.141111 -0.105834,0.232833 -0.09878,0.08467 -0.289278,0.08467 -0.1905,0 -0.310444,-0.07761 -0.119945,-0.08467 -0.211667,-0.254 l -0.712612,-1.312334 q -0.127,-0.23989 -0.303389,-0.317501 -0.169333,-0.08467 -0.437444,-0.08467 h -0.670279 v 1.580445 q 0,0.218722 -0.112889,0.345723 -0.112889,0.119944 -0.338667,0.119944 z m 0.451556,-2.716391 h 1.100668 q 0.486833,0 0.733778,-0.197555 0.254,-0.204612 0.254,-0.606778 0,-0.395112 -0.254,-0.592668 -0.246945,-0.204611 -0.733778,-0.204611 h -1.100668 z"
           style="font-size:7.05556px"
           id="path1765" /><path
           d="m 53.254488,83.137923 q -0.585612,0 -1.008946,-0.218722 -0.423333,-0.218723 -0.656167,-0.620889 -0.225778,-0.402167 -0.225778,-0.952501 0,-0.536223 0.218723,-0.93839 0.225778,-0.402167 0.613834,-0.627944 0.395111,-0.232834 0.896056,-0.232834 0.366889,0 0.656167,0.119945 0.296333,0.119944 0.500945,0.345722 0.211666,0.225778 0.3175,0.550334 0.112889,0.3175 0.112889,0.719667 0,0.127 -0.09172,0.197556 -0.08467,0.0635 -0.246944,0.0635 h -2.264835 v -0.508001 h 1.982612 L 53.945932,81.1412 q 0,-0.324556 -0.09878,-0.543278 -0.09172,-0.218723 -0.275167,-0.331612 -0.176389,-0.119944 -0.444501,-0.119944 -0.296333,0 -0.508,0.141111 -0.204611,0.134056 -0.3175,0.388056 -0.105833,0.246944 -0.105833,0.592667 v 0.04939 q 0,0.578556 0.268111,0.867834 0.275167,0.282222 0.804334,0.282222 0.183444,0 0.409222,-0.04233 0.232834,-0.04939 0.437445,-0.162278 0.148167,-0.08467 0.261056,-0.07056 0.112889,0.0071 0.176389,0.07761 0.07055,0.07056 0.08467,0.176389 0.01411,0.09878 -0.04233,0.204612 -0.04939,0.105833 -0.176389,0.183444 -0.246945,0.155222 -0.5715,0.232834 -0.317501,0.07055 -0.592667,0.07055 z"
           style="font-size:7.05556px"
           id="path1767" /><path
           d="m 56.344821,83.123812 q -0.211667,0 -0.324556,-0.112889 -0.112889,-0.119944 -0.112889,-0.338667 v -2.667002 q 0,-0.218722 0.112889,-0.331611 0.112889,-0.112889 0.3175,-0.112889 0.204612,0 0.317501,0.112889 0.112889,0.112889 0.112889,0.331611 v 0.479779 l -0.07761,-0.176389 q 0.155223,-0.373945 0.479778,-0.564445 0.331612,-0.197556 0.74789,-0.197556 0.416278,0 0.684389,0.155222 0.268111,0.155223 0.402167,0.472723 0.134056,0.310445 0.134056,0.790223 v 1.707445 q 0,0.218723 -0.112889,0.338667 -0.112889,0.112889 -0.324556,0.112889 -0.211667,0 -0.331611,-0.112889 -0.112889,-0.119944 -0.112889,-0.338667 v -1.665112 q 0,-0.402167 -0.155223,-0.585611 -0.148166,-0.183445 -0.465667,-0.183445 -0.388055,0 -0.620889,0.246945 -0.225778,0.239889 -0.225778,0.642056 v 1.545167 q 0,0.451556 -0.4445,0.451556 z"
           style="font-size:7.05556px"
           id="path1769" /><path
           d="m 62.144486,83.137923 q -0.458612,0 -0.769056,-0.155222 -0.30339,-0.155222 -0.451556,-0.451556 -0.148167,-0.303389 -0.148167,-0.747889 v -1.502835 h -0.366889 q -0.169334,0 -0.261056,-0.08467 -0.09172,-0.09172 -0.09172,-0.246945 0,-0.162278 0.09172,-0.246945 0.09172,-0.08467 0.261056,-0.08467 h 0.366889 v -0.642056 q 0,-0.218723 0.112889,-0.331612 0.119944,-0.112889 0.331611,-0.112889 0.211667,0 0.324556,0.112889 0.112889,0.112889 0.112889,0.331612 v 0.642056 h 0.747889 q 0.169334,0 0.261056,0.08467 0.09172,0.08467 0.09172,0.246945 0,0.155222 -0.09172,0.246945 -0.09172,0.08467 -0.261056,0.08467 h -0.747889 v 1.453446 q 0,0.338667 0.148167,0.508 0.148166,0.169333 0.479778,0.169333 0.119944,0 0.211667,-0.02117 0.09172,-0.02117 0.162277,-0.02822 0.08467,-0.0071 0.141112,0.05644 0.05644,0.05644 0.05644,0.239889 0,0.141111 -0.04939,0.254 -0.04233,0.105834 -0.162278,0.148167 -0.09172,0.02822 -0.239889,0.04939 -0.148166,0.02822 -0.261055,0.02822 z"
           style="font-size:7.05556px"
           id="path1771" /><path
           d="m 64.938494,83.137923 q -0.373945,0 -0.670279,-0.141111 -0.289278,-0.148167 -0.458611,-0.395111 -0.162278,-0.246945 -0.162278,-0.55739 0,-0.381 0.197556,-0.599722 0.197555,-0.225778 0.642056,-0.324556 0.4445,-0.09878 1.192389,-0.09878 h 0.352778 v 0.508 h -0.345722 q -0.437445,0 -0.698501,0.04233 -0.261055,0.04233 -0.373944,0.148167 -0.105834,0.09878 -0.105834,0.282222 0,0.232833 0.162278,0.381 0.162278,0.148167 0.451556,0.148167 0.232834,0 0.409223,-0.105833 0.183444,-0.112889 0.289278,-0.30339 0.105833,-0.1905 0.105833,-0.437444 v -0.81139 q 0,-0.352778 -0.155222,-0.508 -0.155223,-0.155222 -0.522112,-0.155222 -0.204611,0 -0.4445,0.04939 -0.232834,0.04939 -0.493889,0.169333 -0.134056,0.0635 -0.239889,0.03528 -0.09878,-0.02822 -0.155223,-0.112889 -0.05644,-0.09172 -0.05644,-0.197556 0,-0.105833 0.05644,-0.204611 0.05645,-0.105833 0.1905,-0.155222 0.324556,-0.134056 0.62089,-0.1905 0.303389,-0.05644 0.550333,-0.05644 0.508001,0 0.832556,0.155222 0.331612,0.155223 0.49389,0.472723 0.162278,0.310445 0.162278,0.804334 v 1.693334 q 0,0.218723 -0.105834,0.338667 -0.105833,0.112889 -0.303389,0.112889 -0.197556,0 -0.310445,-0.112889 -0.105833,-0.119944 -0.105833,-0.338667 v -0.338667 h 0.05644 q -0.04939,0.246945 -0.197556,0.430389 -0.141111,0.176389 -0.359834,0.275167 -0.218722,0.09878 -0.500944,0.09878 z"
           style="font-size:7.05556px"
           id="path1773" /><path
           d="m 69.36939,83.137923 q -0.585611,0 -0.881945,-0.331611 -0.296334,-0.338667 -0.296334,-0.987779 v -3.33728 q 0,-0.218722 0.112889,-0.331611 0.112889,-0.112889 0.324556,-0.112889 0.211667,0 0.324556,0.112889 0.119944,0.112889 0.119944,0.331611 V 81.7762 q 0,0.324556 0.134056,0.479778 0.141111,0.155222 0.395112,0.155222 0.05644,0 0.105833,0 0.04939,-0.0071 0.09878,-0.01411 0.09878,-0.01411 0.134055,0.05645 0.03528,0.0635 0.03528,0.268111 0,0.176389 -0.07055,0.275167 -0.07056,0.09878 -0.232834,0.119944 -0.07055,0.0071 -0.148167,0.01411 -0.07761,0.0071 -0.155222,0.0071 z"
           style="font-size:7.05556px"
           id="path1775" /><path
           d="m 75.811119,83.137923 q -0.776112,0 -1.333501,-0.310444 -0.550334,-0.317501 -0.846667,-0.889001 -0.296334,-0.578556 -0.296334,-1.361723 0,-0.585612 0.169334,-1.051279 0.169333,-0.472722 0.486833,-0.804333 0.317501,-0.338667 0.776112,-0.515056 0.465667,-0.183445 1.044223,-0.183445 0.388056,0 0.762,0.09878 0.373945,0.09878 0.656168,0.282222 0.148166,0.09172 0.197555,0.225778 0.04939,0.127 0.02117,0.254 -0.02822,0.119945 -0.119945,0.204612 -0.08467,0.08467 -0.218722,0.09878 -0.127,0.0071 -0.282222,-0.09172 -0.218723,-0.141111 -0.472723,-0.204611 -0.254,-0.0635 -0.515056,-0.0635 -0.500945,0 -0.846667,0.204611 -0.345722,0.204611 -0.522111,0.592667 -0.176389,0.388056 -0.176389,0.952501 0,0.557389 0.176389,0.9525 0.176389,0.395112 0.522111,0.599723 0.345722,0.204611 0.846667,0.204611 0.268111,0 0.529167,-0.0635 0.261056,-0.07055 0.493889,-0.211667 0.155223,-0.09172 0.275167,-0.07761 0.127,0.0071 0.211667,0.08467 0.08467,0.07761 0.112889,0.197556 0.02822,0.112889 -0.01411,0.239889 -0.04233,0.119944 -0.169334,0.211667 -0.282222,0.204611 -0.677333,0.3175 -0.388056,0.105833 -0.790223,0.105833 z"
           style="font-size:7.05556px"
           id="path1777" /><path
           d="m 79.190734,83.123812 q -0.218722,0 -0.338666,-0.112889 -0.112889,-0.119944 -0.112889,-0.338667 v -2.667002 q 0,-0.218722 0.112889,-0.331611 0.112889,-0.112889 0.3175,-0.112889 0.204611,0 0.3175,0.112889 0.112889,0.112889 0.112889,0.331611 v 0.444501 h -0.07056 q 0.09878,-0.423334 0.388056,-0.642056 0.289278,-0.218723 0.769056,-0.261056 0.148167,-0.01411 0.232834,0.07761 0.09172,0.08467 0.105833,0.268112 0.01411,0.176389 -0.08467,0.289277 -0.09172,0.105834 -0.282222,0.127001 l -0.155222,0.01411 q -0.43039,0.04233 -0.649112,0.268111 -0.218722,0.218722 -0.218722,0.620889 v 1.460501 q 0,0.218723 -0.112889,0.338667 -0.112889,0.112889 -0.331612,0.112889 z"
           style="font-size:7.05556px"
           id="path1779" /><path
           d="m 83.134798,83.137923 q -0.373945,0 -0.670278,-0.141111 -0.289278,-0.148167 -0.458612,-0.395111 -0.162278,-0.246945 -0.162278,-0.55739 0,-0.381 0.197556,-0.599722 0.197556,-0.225778 0.642056,-0.324556 0.4445,-0.09878 1.19239,-0.09878 h 0.352778 v 0.508 h -0.345723 q -0.437445,0 -0.6985,0.04233 -0.261056,0.04233 -0.373945,0.148167 -0.105833,0.09878 -0.105833,0.282222 0,0.232833 0.162278,0.381 0.162277,0.148167 0.451555,0.148167 0.232834,0 0.409223,-0.105833 0.183444,-0.112889 0.289278,-0.30339 0.105833,-0.1905 0.105833,-0.437444 v -0.81139 q 0,-0.352778 -0.155222,-0.508 -0.155222,-0.155222 -0.522112,-0.155222 -0.204611,0 -0.4445,0.04939 -0.232833,0.04939 -0.493889,0.169333 -0.134056,0.0635 -0.239889,0.03528 -0.09878,-0.02822 -0.155222,-0.112889 -0.05645,-0.09172 -0.05645,-0.197556 0,-0.105833 0.05645,-0.204611 0.05644,-0.105833 0.1905,-0.155222 0.324555,-0.134056 0.620889,-0.1905 0.303389,-0.05644 0.550334,-0.05644 0.508,0 0.832556,0.155222 0.331611,0.155223 0.493889,0.472723 0.162278,0.310445 0.162278,0.804334 v 1.693334 q 0,0.218723 -0.105834,0.338667 -0.105833,0.112889 -0.303389,0.112889 -0.197555,0 -0.310444,-0.112889 -0.105834,-0.119944 -0.105834,-0.338667 v -0.338667 h 0.05645 q -0.04939,0.246945 -0.197556,0.430389 -0.141111,0.176389 -0.359833,0.275167 -0.218723,0.09878 -0.500945,0.09878 z"
           style="font-size:7.05556px"
           id="path1781" /><path
           d="m 87.685648,83.123812 q -0.176389,0 -0.303389,-0.08467 -0.127,-0.09172 -0.204611,-0.282222 l -1.023057,-2.610557 q -0.0635,-0.169334 -0.04233,-0.296334 0.02822,-0.134055 0.134056,-0.211667 0.105833,-0.07761 0.282222,-0.07761 0.155222,0 0.254,0.07761 0.09878,0.07056 0.169334,0.275167 l 0.853722,2.349502 h -0.162277 l 0.881945,-2.405946 q 0.05644,-0.155223 0.148166,-0.225778 0.09878,-0.07056 0.254,-0.07056 0.155223,0 0.254001,0.07761 0.09878,0.07056 0.148166,0.218723 l 0.867834,2.405946 h -0.148166 l 0.860778,-2.370668 q 0.07055,-0.190501 0.176389,-0.261056 0.112889,-0.07056 0.246944,-0.07056 0.169334,0 0.261056,0.08467 0.09172,0.08467 0.105834,0.218722 0.01411,0.127 -0.04939,0.282223 l -1.016001,2.610557 q -0.07056,0.183444 -0.204611,0.275167 -0.127,0.09172 -0.303389,0.09172 -0.176389,0 -0.310445,-0.09172 -0.127,-0.09172 -0.197556,-0.275167 l -0.924278,-2.448279 h 0.402167 l -0.903112,2.441223 q -0.07055,0.1905 -0.197555,0.282223 -0.127001,0.09172 -0.310445,0.09172 z"
           style="font-size:7.05556px"
           id="path1783" /><path
           d="m 94.077991,83.137923 q -0.585611,0 -0.881945,-0.331611 -0.296334,-0.338667 -0.296334,-0.987779 v -3.33728 q 0,-0.218722 0.112889,-0.331611 0.112889,-0.112889 0.324556,-0.112889 0.211667,0 0.324556,0.112889 0.119944,0.112889 0.119944,0.331611 V 81.7762 q 0,0.324556 0.134056,0.479778 0.141111,0.155222 0.395112,0.155222 0.05644,0 0.105833,0 0.04939,-0.0071 0.09878,-0.01411 0.09878,-0.01411 0.134055,0.05645 0.03528,0.0635 0.03528,0.268111 0,0.176389 -0.07055,0.275167 -0.07056,0.09878 -0.232834,0.119944 -0.07055,0.0071 -0.148167,0.01411 -0.07761,0.0071 -0.155222,0.0071 z"
           style="font-size:7.05556px"
           id="path1785" /><path
           d="m 97.34472,83.137923 q -0.585612,0 -1.008945,-0.218722 -0.423334,-0.218723 -0.656167,-0.620889 -0.225778,-0.402167 -0.225778,-0.952501 0,-0.536223 0.218722,-0.93839 0.225778,-0.402167 0.613834,-0.627944 0.395111,-0.232834 0.896056,-0.232834 0.366889,0 0.656167,0.119945 0.296334,0.119944 0.500945,0.345722 0.211667,0.225778 0.3175,0.550334 0.112889,0.3175 0.112889,0.719667 0,0.127 -0.09172,0.197556 -0.08467,0.0635 -0.246945,0.0635 h -2.264835 v -0.508001 h 1.982613 L 98.036165,81.1412 q 0,-0.324556 -0.09878,-0.543278 -0.09172,-0.218723 -0.275167,-0.331612 -0.176389,-0.119944 -0.4445,-0.119944 -0.296334,0 -0.508,0.141111 -0.204612,0.134056 -0.317501,0.388056 -0.105833,0.246944 -0.105833,0.592667 v 0.04939 q 0,0.578556 0.268111,0.867834 0.275167,0.282222 0.804334,0.282222 0.183445,0 0.409223,-0.04233 0.232833,-0.04939 0.437444,-0.162278 0.148167,-0.08467 0.261056,-0.07056 0.112889,0.0071 0.176389,0.07761 0.07056,0.07056 0.08467,0.176389 0.01411,0.09878 -0.04233,0.204612 -0.04939,0.105833 -0.176389,0.183444 -0.246944,0.155222 -0.5715,0.232834 -0.3175,0.07055 -0.592667,0.07055 z"
           style="font-size:7.05556px"
           id="path1787" /><path
           d="m 100.44916,83.123812 q -0.21872,0 -0.33866,-0.112889 -0.112891,-0.119944 -0.112891,-0.338667 v -2.667002 q 0,-0.218722 0.112891,-0.331611 0.11289,-0.112889 0.3175,-0.112889 0.20461,0 0.3175,0.112889 0.11289,0.112889 0.11289,0.331611 v 0.444501 h -0.0706 q 0.0988,-0.423334 0.38806,-0.642056 0.28928,-0.218723 0.76905,-0.261056 0.14817,-0.01411 0.23284,0.07761 0.0917,0.08467 0.10583,0.268112 0.0141,0.176389 -0.0847,0.289277 -0.0917,0.105834 -0.28222,0.127001 l -0.15522,0.01411 q -0.43039,0.04233 -0.64911,0.268111 -0.21872,0.218722 -0.21872,0.620889 v 1.460501 q 0,0.218723 -0.11289,0.338667 -0.11289,0.112889 -0.33162,0.112889 z"
           style="font-size:7.05556px"
           id="path1789" /></g></g></g></svg>
